SplineFontDB: 3.0
FontName: Neuton-Extrabold
FullName: Neuton Extrabold
FamilyName: Neuton
Weight: Extrabold
Copyright: Copyright (c) 2010, Brian M Zick (http://21326.info/),\nwith Reserved Font Name "Neuton".\nCleanup by Wallace Smith and William Zick.\n\nThis Font Software is licensed under the SIL Open Font License, Version 1.1.\nThis license is available with a FAQ at: http://scripts.sil.org/OFL
UComments: "2011-6-6: Created." 
Version: 1.4
ItalicAngle: 0
UnderlinePosition: -165
UnderlineWidth: 82
Ascent: 1638
Descent: 410
LayerCount: 2
Layer: 0 0 "Back"  1
Layer: 1 0 "Fore"  0
NeedsXUIDChange: 1
XUID: [1021 467 2011608612 15596835]
FSType: 0
OS2Version: 0
OS2_WeightWidthSlopeOnly: 0
OS2_UseTypoMetrics: 1
CreationTime: 1307367768
ModificationTime: 1307731832
OS2TypoAscent: 0
OS2TypoAOffset: 1
OS2TypoDescent: 0
OS2TypoDOffset: 1
OS2TypoLinegap: 149
OS2WinAscent: 0
OS2WinAOffset: 1
OS2WinDescent: 0
OS2WinDOffset: 1
HheadAscent: 0
HheadAOffset: 1
HheadDescent: 0
HheadDOffset: 1
OS2Vendor: 'PfEd'
MarkAttachClasses: 1
DEI: 91125

StartChar: A
Encoding: 65 65 0
Width: 1453
VWidth: 0
Flags: HW
HStem: 0 21G<0 607.027> 352 209<407 914> 1250 20G<808.231 922.558>
DStem2: 915 1270 662 933 0.353506 -0.935432<225.804 662.868>
LayerCount: 2
Back
SplineSet
0 0 m 5
 19 138 l 5
 180 241 l 5
 618 1205 l 5
 965 1270 l 5
 1305 238 l 5
 1453 145 l 5
 1441 -2 l 5
 716 -2 l 5
 732 136 l 5
 898 240 l 5
 869 341 l 5
 471 341 l 5
 431 240 l 5
 620 148 l 5
 605 0 l 5
 0 0 l 5
546 534 m 5
 815 534 l 5
 703 933 l 5
 546 534 l 5
EndSplineSet
Fore
SplineSet
407 561 m 25
 914 561 l 25
 914 352 l 25
 407 352 l 25
 407 561 l 25
431 240 m 17
 620 148 l 1
 605 0 l 1
 0 0 l 1
 19 138 l 1
 180 241 l 1
 568 1205 l 1
 915 1270 l 1
 1305 238 l 1
 1453 145 l 1
 1441 -2 l 1
 716 -2 l 1
 732 136 l 1
 898 240 l 9
 662 933 l 25
 431 240 l 17
EndSplineSet
EndChar

StartChar: AE
Encoding: 198 198 1
Width: 1836
VWidth: 0
Flags: HW
HStem: 0 178<1255 1520> 472 160<629 922> 549 172<1255 1324> 933 21G<1623.23 1756.19> 1072 172<1255 1503>
VStem: 927 328<217 472 721 989>
LayerCount: 2
Back
SplineSet
691 1100 m 1
 710 1244 l 1
 1883 1244 l 5
 1853 826 l 5
 1682 852 l 5
 1599 1072 l 5
 1254 1072 l 1
 1254 712 l 1
 1504 732.286 l 1
 1549 735.938 l 1
 1673 746 l 1
 1640 470 l 1
 1507 494.119 l 1
 1462 502.28 l 1
 1254 540 l 1
 1254 210 l 1
 1617 170 l 5
 1763 428 l 5
 1928 411 l 5
 1898 0 l 5
 707 0 l 1
 717 138 l 1
 881 217 l 1
 881 1030 l 1
 691 1100 l 1
EndSplineSet
Fore
SplineSet
492 443 m 1
 360 243 l 1
 541 150 l 1
 524 -2 l 1
 -60 -2 l 1
 -40 162 l 1
 94 237 l 1
 655 1020 l 1
 475 1094 l 1
 496 1244 l 1
 1747 1244 l 1
 1717 826 l 1
 1546 852 l 1
 1463 1072 l 1
 1215 1072 l 1
 1232 708 l 1
 1570 749 l 1
 1538 507 l 1
 1239 536 l 1
 1255 198 l 1
 1521 180 l 1
 1667 428 l 1
 1832 411 l 1
 1802 0 l 1
 731 0 l 1
 744 138 l 1
 907 217 l 1
 894 443 l 1
 492 443 l 1
596 615 m 1
 882 615 l 1
 870 1008 l 1
 596 615 l 1
EndSplineSet
EndChar

StartChar: Aogonek
Encoding: 260 260 9
Width: 1472
VWidth: 0
Flags: HW
HStem: 0 21G<0 607.027> 342 192<543 815> 1250 20G<858.231 971.589>
VStem: 1130 252<-257.539 -112>
LayerCount: 2
Fore
SplineSet
0 0 m 1
 19 138 l 1
 180 241 l 1
 618 1205 l 1
 965 1270 l 1
 1305 238 l 1
 1453 145 l 1
 1441 -2 l 1
 1405 -2 l 1
 1357 -132 1382 -148 1382 -112 c 0
 1382 -135 1384 -249 1472 -300 c 1
 1434 -385 l 1
 1290 -372 1130 -293 1130 -206 c 0
 1130 -157 1140 -116 1281 -2 c 1
 716 -2 l 1
 732 136 l 1
 915 240 l 1
 866 342 l 1
 471 342 l 1
 431 240 l 1
 620 148 l 1
 605 0 l 1
 0 0 l 1
543 534 m 1
 815 534 l 1
 703 933 l 1
 543 534 l 1
EndSplineSet
EndChar

StartChar: B
Encoding: 66 66 12
Width: 1228
VWidth: 0
Flags: HMW
LayerCount: 2
Fore
SplineSet
0 0 m 1
 14 138 l 1
 180 217 l 1
 180 1008 l 1
 11 1052 l 1
 21 1211 l 1
 164 1230 431 1257 608 1257 c 0
 1013 1257 1146 1101 1146 951 c 0
 1146 840 1051 720 943 684 c 1
 943 674 l 1
 1146 663 1228 509 1228 379 c 0
 1228 139 1018 0 644 0 c 2
 0 0 l 1
552 186 m 1
 664 186 l 2
 766 186 853 241 853 348 c 0
 853 472 765 561 631 561 c 2
 552 561 l 1
 552 186 l 1
552 728 m 1
 726 728 l 1
 767 777 788 828 788 897 c 0
 788 1008 730 1080 604 1080 c 0
 588 1080 571 1078 552 1075 c 1
 552 728 l 1
EndSplineSet
EndChar

StartChar: C
Encoding: 67 67 13
Width: 1242
VWidth: 0
Flags: HW
HStem: -29 234<613.905 997.749> 1090 182<543.694 893.555>
VStem: 0 392<432.861 816.405>
LayerCount: 2
Back
SplineSet
0 619 m 4
 0 1004 285 1269 755 1269 c 4
 1169 1269 1449 1082 1449 603 c 4
 1449 180 1120 -27 685 -27 c 4
 215 -27 0 239 0 619 c 4
448 671 m 4
 448 526 497 163 738 163 c 4
 909 163 998 287 998 573 c 4
 998 720 962 1094 709 1094 c 4
 519 1094 448 933 448 671 c 4
EndSplineSet
Fore
SplineSet
0 583 m 0
 0 877 196 1272 803 1272 c 0
 933 1272 1117 1245 1211 1172 c 1
 1180 748 l 1
 1010 771 l 1
 946 1003 l 1
 900 1060 798 1090 729 1090 c 0
 510 1090 392 966 392 706 c 0
 392 354 544 205 835 205 c 0
 980 205 1095 252 1183 301 c 1
 1242 166 l 1
 1164 78 980 -29 726 -29 c 0
 232 -29 0 203 0 583 c 0
EndSplineSet
EndChar

StartChar: D
Encoding: 68 68 18
Width: 1451
VWidth: 0
Flags: HW
HStem: 0 202<573 861.219> 1057 201<579.316 777.704>
VStem: 203 370<241 1003> 1046 405<435.886 797.343>
LayerCount: 2
Fore
SplineSet
0 0 m 5
 23 138 l 5
 203 241 l 5
 203 1003 l 5
 30 1049 l 5
 37 1206 l 5
 233 1237 487 1258 630 1258 c 4
 1300 1258 1451 959 1451 652 c 4
 1451 311 1128 0 618 0 c 6
 0 0 l 5
573 202 m 5
 648 202 l 6
 1006 202 1046 459 1046 598 c 4
 1046 793 920 1057 591 1057 c 4
 552 1057 612 1052 573 1051 c 5
 573 202 l 5
EndSplineSet
EndChar

StartChar: Dcroat
Encoding: 272 272 20
Width: 1490
VWidth: 0
Flags: HW
HStem: 0 202<573 938.167> 1062 201<579.316 798.983>
VStem: 203 370<241 498 674 1008> 1076 414<478.807 792.886>
DStem2: 39 636 23 483 0.996442 0.0842829<0 151.785 535.303 703.705>
LayerCount: 2
Fore
SplineSet
573 202 m 1
 648 202 l 2
 1006 202 1046 459 1046 598 c 0
 1046 793 920 1057 591 1057 c 0
 552 1057 612 1052 573 1051 c 1
 573 712 l 1
 771 737 l 1
 752 548 l 1
 573 536 l 1
 573 202 l 1
0 0 m 1
 23 138 l 1
 203 241 l 1
 203 499 l 1
 23 483 l 1
 38 666 l 1
 203 680 l 1
 203 1003 l 1
 30 1049 l 1
 37 1206 l 1
 233 1237 487 1258 630 1258 c 0
 1300 1258 1451 959 1451 652 c 0
 1451 311 1128 0 618 0 c 2
 0 0 l 1
EndSplineSet
EndChar

StartChar: E
Encoding: 69 69 21
Width: 1237
VWidth: 0
Flags: HW
HStem: 0 21G<16 1208.46> 1072 172<563 908>
VStem: 190 373<217 540 712 1030>
LayerCount: 2
Fore
SplineSet
0 1100 m 5
 19 1244 l 5
 1192 1244 l 5
 1162 826 l 5
 991 852 l 5
 908 1072 l 5
 563 1072 l 5
 563 712 l 5
 813 732 l 5
 858 736 l 5
 982 746 l 5
 949 470 l 5
 816 494 l 5
 771 502 l 5
 563 540 l 5
 563 210 l 5
 926 170 l 5
 1072 428 l 5
 1237 411 l 5
 1207 0 l 5
 16 0 l 5
 26 138 l 5
 190 217 l 5
 190 1030 l 5
 0 1100 l 5
EndSplineSet
EndChar

StartChar: Eng
Encoding: 330 330 29
Width: 1353
VWidth: 0
Flags: HW
HStem: 0 21G<0 582.757> 1224 20G<16.2166 480.764 842.8 1423>
VStem: 181 233<217 619> 1010 220<455 1020>
LayerCount: 2
Fore
SplineSet
0 0 m 1
 10 138 l 1
 181 217 l 1
 181 1003 l 1
 4 1087 l 1
 18 1244 l 1
 458 1244 l 1
 990 532 l 1
 990 1020 l 1
 802 1094 l 1
 826 1244 l 1
 1403 1244 l 1
 1378 1094 l 1
 1210 1027 l 1
 1210 434 l 2
 1210 26 1115 -111 756 -326 c 1
 639 -151 l 1
 728 -80 784 16 815 112 c 1
 414 619 l 1
 414 211 l 1
 594 148 l 1
 581 0 l 1
 0 0 l 1
EndSplineSet
EndChar

StartChar: Eth
Encoding: 208 208 31
Width: 1490
VWidth: 0
Flags: HW
HStem: 0 202<573 938.167> 1062 201<579.316 798.983>
VStem: 203 370<241 498 674 1008> 1076 414<478.807 792.886>
DStem2: 39 636 23 483 0.996442 0.0842829<0 151.785 535.303 703.705>
LayerCount: 2
Fore
SplineSet
573 202 m 1
 648 202 l 2
 1006 202 1046 459 1046 598 c 0
 1046 793 920 1057 591 1057 c 0
 552 1057 612 1052 573 1051 c 1
 573 712 l 1
 771 737 l 1
 752 548 l 1
 573 536 l 1
 573 202 l 1
0 0 m 1
 23 138 l 1
 203 241 l 1
 203 499 l 1
 23 483 l 1
 38 666 l 1
 203 680 l 1
 203 1003 l 1
 30 1049 l 1
 37 1206 l 1
 233 1237 487 1258 630 1258 c 0
 1300 1258 1451 959 1451 652 c 0
 1451 311 1128 0 618 0 c 2
 0 0 l 1
EndSplineSet
EndChar

StartChar: Euro
Encoding: 8364 8364 32
Width: 1241
VWidth: 0
Flags: HW
HStem: -23 187<727.869 977.24> 370 163<26 956> 569 164<42 1011> 1111 155<601.435 872.049>
VStem: 113 391<504.233 848.304>
LayerCount: 2
Fore
SplineSet
10 456 m 1
 26 589 l 1
 907 589 l 1
 880 456 l 1
 10 456 l 1
26 655 m 1
 42 789 l 1
 953 789 l 1
 926 655 l 1
 26 655 l 1
847 1266 m 0
 977 1266 1128 1239 1222 1166 c 1
 1195 815 l 1
 1020 837 l 1
 954 1027 l 1
 878 1083 795 1096 721 1096 c 0
 600 1096 504 1005 504 768 c 0
 504 567 606 164 859 164 c 0
 920 164 954 174 962 188 c 1
 1036 408 l 1
 1212 436 l 1
 1241 127 l 1
 1100 -2 976 -23 813 -23 c 0
 344 -23 135 266 135 570 c 0
 135 909 395 1266 847 1266 c 0
EndSplineSet
EndChar

StartChar: Euro.osf
Encoding: 65536 -1 33
Width: 1048
VWidth: 0
Flags: HW
HStem: -26 193<459 758.99> 306 163<31 649> 529 166<22 699> 885 156<550.564 766.863>
VStem: 140 391<230.429 851.409>
LayerCount: 2
Fore
SplineSet
20 559 m 1
 42 695 l 1
 736 695 l 1
 699 559 l 1
 20 559 l 1
25 369 m 1
 41 502 l 1
 686 502 l 1
 649 369 l 1
 25 369 l 1
130 517 m 0
 130 810 331 1041 672 1041 c 0
 870 1041 998 972 1041 888 c 1
 1019 575 l 1
 856 599 l 1
 798 810 l 5
 749.65 856.572 684.46 898.071 646.294 898.071 c 4
 504 898.071 451 794.416 451 545 c 0
 451 248.167 608.197 136.904 690.195 136.904 c 0
 725.876 136.904 762 143 794 152 c 1
 856 415 l 1
 1019 383 l 1
 1038 104 l 1
 939 -2 745.086 -41.0634 584.929 -41.0634 c 0
 350.833 -41.0634 130 116.799 130 517 c 0
EndSplineSet
EndChar

StartChar: F
Encoding: 70 70 34
Width: 1187
VWidth: 0
Flags: HW
HStem: 0 21G<15 776.238> 1072 172<565 901>
VStem: 193 372<227 514 686 1030>
LayerCount: 2
Fore
SplineSet
0 1100 m 1
 19 1244 l 1
 1187 1244 l 1
 1128 834 l 1
 961 861 l 1
 901 1072 l 1
 565 1072 l 1
 565 686 l 1
 792 709 l 1
 825 712 l 1
 984 728 l 1
 951 452 l 1
 798 477 l 1
 756 483 l 1
 565 514 l 1
 565 227 l 1
 790 143 l 1
 774 0 l 1
 15 0 l 1
 31 138 l 1
 193 217 l 1
 193 1030 l 1
 0 1100 l 1
EndSplineSet
EndChar

StartChar: G
Encoding: 71 71 35
Width: 1431
VWidth: 0
Flags: HW
HStem: -24 203<606.392 911.243> 1087 184<568.502 908.552>
VStem: 20 408<413.777 826.853> 929 336<208.429 355> 1033 188<761 837.226>
LayerCount: 2
Back
SplineSet
0 619 m 4
 0 1004 285 1269 755 1269 c 4
 1169 1269 1449 1082 1449 603 c 4
 1449 180 1120 -27 685 -27 c 4
 215 -27 0 239 0 619 c 4
448 671 m 4
 448 526 497 163 738 163 c 4
 909 163 998 287 998 573 c 4
 998 720 962 1094 709 1094 c 4
 519 1094 448 933 448 671 c 4
EndSplineSet
Fore
SplineSet
20 580 m 0xf0
 20 1028 407 1271 781 1271 c 0
 1047 1271 1159 1216 1262 1185 c 1
 1221 746 l 1
 1033 761 l 1xe8
 992 979 l 1
 934 1038 863 1087 734 1087 c 0
 542 1087 428 978 428 696 c 0
 428 390 551 179 744 179 c 0
 816 179 876 196 929 235 c 1
 929 355 l 1
 708 419 l 1
 731 591 l 1
 1391 591 l 1
 1370 435 l 1
 1265 363 l 1
 1265 93 l 1
 1179 38 917 -24 760 -24 c 0
 267 -24 20 186 20 580 c 0xf0
EndSplineSet
EndChar

StartChar: H
Encoding: 72 72 39
Width: 1570
VWidth: 0
Flags: HW
HStem: 0 21G<5 724.432 825 1549.89> 481 251<559 1006> 1224 20G<21.6667 745 839.733 1570>
VStem: 186 373<217 481 732 1020> 1006 377<217 481 732 1020>
LayerCount: 2
Fore
SplineSet
0 1094 m 1
 25 1244 l 1
 745 1244 l 1
 726 1094 l 1
 559 1027 l 1
 559 732 l 1
 1006 732 l 1
 1006 1020 l 1
 825 1094 l 1
 842 1244 l 1
 1570 1244 l 1
 1551 1094 l 1
 1383 1027 l 1
 1383 211 l 1
 1562 148 l 1
 1548 0 l 1
 825 0 l 1
 839 138 l 1
 1006 217 l 1
 1006 481 l 1
 559 481 l 1
 559 211 l 1
 740 148 l 1
 722 0 l 1
 5 0 l 1
 17 138 l 1
 186 217 l 1
 186 1020 l 1
 0 1094 l 1
EndSplineSet
EndChar

StartChar: Hbar
Encoding: 294 294 40
Width: 1570
VWidth: 0
Flags: HW
HStem: 0 21<-77 642.432 743 1467.89> 481 251<477 924> 733 214<47 239 1099 1281> 762 150<272 1075> 1224 20<-60.3333 663 757.733 1488>
VStem: 104 373<217 481 732 1020> 924 377<217 481 732 1020>
LayerCount: 2
Fore
SplineSet
15 743 m 1xee
 27 947 l 1
 239 947 l 1xee
 272 908 l 1
 1305 908 l 1xde
 1324 947 l 1
 1541 947 l 1
 1531 743 l 1
 1329 743 l 1xee
 1305 808 l 1
 266 808 l 1xde
 239 743 l 1
 15 743 l 1xee
EndSplineSet
Refer: 39 72 N 1 0 0 1 0 0 2
EndChar

StartChar: I
Encoding: 73 73 41
Width: 737
VWidth: 0
Flags: HW
HStem: 0 21G<12 730.625> 1224 20G<27.3333 757>
VStem: 198 364<223 1017>
LayerCount: 2
Fore
SplineSet
10 1094 m 5
 30 1244 l 5
 757 1244 l 5
 741 1084 l 5
 562 1017 l 5
 562 223 l 5
 742 160 l 5
 729 0 l 5
 12 0 l 5
 22 142 l 5
 198 221 l 5
 198 1020 l 5
 10 1094 l 5
EndSplineSet
EndChar

StartChar: J
Encoding: 74 74 50
Width: 761
VWidth: 0
Flags: HW
HStem: 1224 20G<41.4667 761>
VStem: 204 367<82.926 1020>
LayerCount: 2
Fore
SplineSet
0 -151 m 1
 143 -36 204 142 204 285 c 2
 204 1020 l 1
 25 1094 l 1
 44 1244 l 1
 761 1244 l 1
 741 1094 l 1
 571 1027 l 1
 571 434 l 2
 574 26 476 -111 117 -326 c 1
 0 -151 l 1
EndSplineSet
EndChar

StartChar: K
Encoding: 75 75 51
Width: 1507
VWidth: 0
Flags: HW
HStem: -27 1271<1021 1294> 0 21G<3 769.622>
VStem: 221 364<241 993>
LayerCount: 2
Back
SplineSet
-48.458 0 m 5
 -29.8828 138.105 l 5
 159.912 217.254 l 5
 159.912 995.814 l 5
 -31.498 1043.46 l 5
 -20.1904 1202.57 l 5
 125.184 1225.99 349.706 1255.06 497.503 1255.06 c 4
 952.202 1255.06 1203.38 1216.3 1203.38 907.782 c 4
 1203.38 723.641 1051.54 591.188 916.666 562.114 c 5
 916.666 561.307 l 5
 1048.31 399.779 l 6
 1136.34 292.364 1210.64 178.236 1368.13 142.144 c 6
 1406.9 133.26 l 5
 1376.21 2.42285 l 5
 1333.41 -10.499 1261.53 -27.46 1158.96 -27.46 c 4
 913.436 -27.46 788.205 97.7949 694.566 282.672 c 6
 600.073 469.236 l 5
 530.616 469.236 l 5
 530.616 228.561 l 5
 672.76 155.066 l 5
 661.453 0 l 5
 -48.458 0 l 5
530.616 627.532 m 5
 653.377 627.532 l 5
 762.07 653.028 807.56 728.403 807.56 811.124 c 4
 807.56 970.673 700.521 1080.03 579.259 1080.03 c 4
 563.222 1080.03 546.937 1078.12 530.616 1074.15 c 5
 530.616 627.532 l 5
EndSplineSet
Fore
SplineSet
0 1094 m 1x60
 32 1244 l 1
 742 1244 l 1xa0
 721 1094 l 1
 585 1000 l 1
 585 240 l 1
 780 148 l 1
 768 0 l 1
 3 0 l 1
 19 138 l 1
 221 241 l 1
 221 993 l 1
 0 1094 l 1x60
630 608 m 1
 630 640 l 1
 628 630 700 737 700 737 c 2
 763 824 867 1003 867 1003 c 1
 880 1082 l 1
 907 1244 l 1
 1428 1244 l 1
 1398 1094 l 1
 1174 1000 l 1
 942 685 l 1
 1090 470 l 2
 1242 249 1319 176 1482 139 c 2
 1507 133 l 1
 1475 2 l 1
 1429 -16 1294 -27 1255 -27 c 0
 1021 -27 878 119 763 346 c 2
 630 608 l 1
EndSplineSet
EndChar

StartChar: L
Encoding: 76 76 53
Width: 1202
VWidth: 0
Flags: HW
HStem: 0 21G<43 1157.19> 1225 20G<63.415 809>
VStem: 219 373<217 998>
LayerCount: 2
Fore
SplineSet
47 1098 m 1
 66 1245 l 1
 809 1245 l 1
 788 1098 l 1
 592 1000 l 1
 592 210 l 1
 862 178 l 1
 1036 453 l 1
 1202 430 l 1
 1155 0 l 1
 43 0 l 1
 59 138 l 1
 219 217 l 1
 219 998 l 1
 47 1098 l 1
EndSplineSet
EndChar

StartChar: Lslash
Encoding: 321 321 57
Width: 1202
VWidth: 0
Flags: HW
HStem: 0 21<43 1157.19> 1225 20<25.054 769>
VStem: 219 373<217 998>
DStem2: 131 747 135 572 0.861525 0.507716<0 478.811>
LayerCount: 2
Fore
SplineSet
74 628 m 1
 810 850 l 1
 811 678 l 1
 78 453 l 1
 74 628 l 1
EndSplineSet
Refer: 53 76 N 1 0 0 1 0 0 2
EndChar

StartChar: M
Encoding: 77 77 58
Width: 1794
VWidth: 0
Flags: HW
HStem: 0 21G<0 558.106 1149 1791.74> 1224 20G<76.9618 693.927 1131.4 1738>
DStem2: 189 233 451 229 0.072581 0.997362<15.0268 573.95> 915 543 1231 776 0.289116 0.957294<0 314.41> 1558 1033 1231 776 0.0867366 -0.996231<227.669 773.219>
LayerCount: 2
Fore
SplineSet
0 0 m 1
 21 154 l 1
 189 233 l 1
 247 1030 l 1
 63 1087 l 1
 79 1244 l 1
 687 1244 l 1
 758 1039 l 1
 915 543 l 1
 1071 1041 l 1
 1138 1244 l 1
 1738 1244 l 1
 1720 1087 l 1
 1558 1033 l 1
 1628 229 l 1
 1804 161 l 1
 1790 0 l 1
 1149 0 l 1
 1172 154 l 1
 1284 233 l 1
 1231 776 l 1
 1006 31 l 1
 723 -8 l 1
 484 787 l 1
 451 229 l 1
 580 161 l 1
 555 0 l 1
 0 0 l 1
EndSplineSet
EndChar

StartChar: N
Encoding: 78 78 59
Width: 1353
VWidth: 0
Flags: HW
HStem: 0 21G<0 582.757> 1224 20G<16.2166 472.944 822.8 1403>
VStem: 181 233<217 619> 990 220<532 1020>
DStem2: 990 532 414 619 0.598559 -0.801079<-414.464 0>
LayerCount: 2
Fore
SplineSet
0 0 m 5
 10 138 l 5
 181 217 l 5
 181 1003 l 5
 4 1087 l 5
 18 1244 l 5
 458 1244 l 5
 990 532 l 5
 990 1020 l 5
 802 1094 l 5
 826 1244 l 5
 1403 1244 l 5
 1378 1094 l 5
 1210 1027 l 5
 1210 15 l 5
 927 -29 l 5
 414 619 l 5
 414 211 l 5
 594 148 l 5
 581 0 l 5
 0 0 l 5
EndSplineSet
EndChar

StartChar: O
Encoding: 79 79 64
Width: 1459
VWidth: 0
Flags: HW
HStem: -27 190<615.259 878.688> 1094 175<567.247 832.615>
VStem: 0 448<390.623 859.836> 998 464<380.909 868.004>
LayerCount: 2
Fore
SplineSet
0 619 m 4
 0 1004 283 1269 753 1269 c 4
 1167 1269 1462 1092 1462 613 c 4
 1462 196 1118 -27 683 -27 c 4
 213 -27 0 239 0 619 c 4
448 671 m 4
 448 526 495 163 736 163 c 4
 907 163 998 287 998 573 c 4
 998 720 960 1094 707 1094 c 4
 517 1094 448 933 448 671 c 4
EndSplineSet
EndChar

StartChar: OE
Encoding: 338 338 65
Width: 1879
VWidth: 0
Flags: HW
HStem: -27 203<483.565 733.86> 0 178<540.205 737.278 1134 1567> 540 172<1134 1374> 923 21G<1673.54 1804.06> 1072 169<611.059 765 1134 1556> 1094 175<479.454 762.536>
VStem: 0 447<301.352 931.165> 765 369<213.727 540 712 1072>
LayerCount: 2
Back
SplineSet
492.266 443 m 1
 360 243 l 1
 541 150 l 1
 524 -2 l 1
 -60 -2 l 1
 -40 162 l 1
 94 237 l 1
 655 1020 l 1
 475 1094 l 1
 496 1244 l 1
 1747 1244 l 5
 1717 826 l 5
 1546 852 l 5
 1463 1072 l 5
 1215 1072 l 1
 1232 708 l 1
 1570 748.938 l 5
 1538 507.119 l 5
 1239 536 l 1
 1255 198 l 1
 1521 180 l 5
 1667 428 l 5
 1832 411 l 5
 1802 0 l 5
 731 0 l 1
 744 138 l 1
 907 217 l 1
 893.826 443 l 1
 492.266 443 l 1
595.903 615 m 1
 882.052 615 l 1
 870 1008 l 1
 595.903 615 l 1
EndSplineSet
Fore
SplineSet
1802 0 m 1
 761 0 l 1x7b
 697 -18 626 -27 536 -27 c 0
 155 -27 0 210 0 619 c 0xb3
 0 1021 153 1269 607 1269 c 0xb7
 694 1269 755 1259 806 1241 c 1
 1747 1244 l 1
 1717 826 l 1
 1546 852 l 1
 1463 1072 l 9
 1134 1072 l 17
 1134 712 l 1
 1570 749 l 1
 1535 502 l 1
 1134 540 l 1
 1134 178 l 9
 1521 180 l 17
 1667 428 l 1
 1832 411 l 1
 1802 0 l 1
447 671 m 0
 447 548 462 195 640 195 c 0
 675 195 716 209 765 240 c 1
 765 1058 l 1
 705 1083 652 1104 606 1104 c 0
 508 1104 447 1010 447 671 c 0
EndSplineSet
EndChar

StartChar: Oslash
Encoding: 216 216 73
Width: 1447
VWidth: 0
Flags: HW
HStem: -27 190<595.537 936.893> 1094 175<511.653 920.942>
VStem: 0 446<372.719 855.095> 684 89<-79 169.066> 707 123<931.934 1318> 996 451<358.718 807.308>
LayerCount: 2
Fore
SplineSet
0 619 m 0
 0 1004 283 1269 753 1269 c 0
 1167 1269 1462 1092 1462 613 c 0
 1462 196 1118 -27 683 -27 c 0
 213 -27 0 239 0 619 c 0
448 671 m 0
 448 526 495 163 736 163 c 0
 907 163 998 287 998 573 c 0
 998 720 960 1094 707 1094 c 0
 517 1094 448 933 448 671 c 0
20 44 m 1xf4
 225 270 l 1
 398 302 l 1
 1013 1058 l 1
 1031 1158 l 1
 1163 1282 l 1
 1406 1231 l 1
 1167 987 l 1
 1054 968 l 1
 440 203 l 1
 369 96 l 1
 266 -19 l 1
 20 44 l 1xf4
EndSplineSet
EndChar

StartChar: P
Encoding: 80 80 75
Width: 1195
VWidth: 0
Flags: HW
HStem: 0 21G<0 783.057> 446 179<618.295 749.22> 1054 213<569.008 756.082>
VStem: 209 354<233 1008> 825 370<698.945 984.191>
LayerCount: 2
Fore
SplineSet
0 0 m 5
 22 138 l 5
 209 217 l 5
 209 1008 l 5
 19 1052 l 5
 32 1211 l 5
 248 1244 416 1267 680 1267 c 4
 994 1267 1195 1186 1195 889 c 4
 1195 649 997 446 698 446 c 4
 672 446 645 448 617 451 c 5
 585 625 l 5
 606 625 l 6
 755 625 825 720 825 841 c 4
 825 963 762 1054 630 1054 c 4
 609 1054 586 1051 563 1047 c 5
 563 233 l 5
 804 157 l 5
 780 0 l 5
 0 0 l 5
EndSplineSet
EndChar

StartChar: Q
Encoding: 81 81 76
Width: 1451
VWidth: 0
Flags: HW
HStem: -335 135<1248.62 1407> 1094 175<556.201 833.328>
VStem: 0 435<438.054 845.882> 1001 450<394.768 864.941>
LayerCount: 2
Fore
SplineSet
0 609 m 0
 0 994 303 1269 755 1269 c 0
 1169 1269 1451 1080 1451 623 c 0
 1451 311 1232 87 993 16 c 1
 1059 -104 1238 -164 1428 -200 c 1
 1407 -335 l 1
 1318 -365 1217 -383 1122 -383 c 0
 896 -383 691 -282 724 -26 c 1
 707 -27 702 -27 685 -27 c 0
 243 -27 0 229 0 609 c 0
435 671 m 0
 435 444 557 184 811 148 c 1
 968 228 1001 375 1001 573 c 0
 1001 756 950 1094 697 1094 c 0
 507 1094 435 933 435 671 c 0
EndSplineSet
EndChar

StartChar: R
Encoding: 82 82 77
Width: 1456
VWidth: 0
Flags: HW
HStem: 0 21G<0 711.548> 1075 180<581.654 756.52>
VStem: 209 370<229 459 668 996> 851 401<753.606 986.807>
LayerCount: 2
Fore
SplineSet
0 0 m 1
 19 138 l 1
 209 217 l 1
 209 996 l 1
 17 1043 l 1
 29 1203 l 1
 174 1226 518 1255 666 1255 c 0
 1047 1255 1252 1167 1252 908 c 0
 1252 724 1074 600 966 562 c 1
 966 561 l 1
 1097 400 l 2
 1185 293 1260 178 1417 142 c 2
 1456 133 l 1
 1425 2 l 1
 1382 -11 1311 -27 1208 -27 c 0
 962 -27 837 99 743 283 c 2
 653 459 l 1
 579 459 l 1
 579 229 l 1
 722 155 l 1
 710 0 l 1
 0 0 l 1
579 668 m 1
 732 668 l 1
 810 710 851 766 851 860 c 0
 851 974 758 1075 612 1075 c 0
 601 1075 590 1075 579 1074 c 1
 579 668 l 1
EndSplineSet
EndChar

StartChar: S
Encoding: 83 83 81
Width: 919
VWidth: 0
Flags: HW
HStem: -23 157<272.445 576.893> 1125 141<331.62 588.031>
VStem: -22 321<669.993 1032.97> 4 177<378.104 459> 603 366<212.615 576.5> 671 173<844 914.945>
LayerCount: 2
Fore
SplineSet
-30 126 m 1xe8
 4 488 l 1
 181 459 l 1
 223 272 l 1
 265 212 363 181 448 181 c 0
 527 181 575 228 575 281 c 0
 575 477 -22 432 -22 857 c 0
 -22 1144 258 1266 518 1266 c 0
 625 1266 821 1225 872 1176 c 5
 872 1152 844 814 844 814 c 5
 671 844 l 5xe4
 632 987 l 21
 588 1051 494 1086 416 1086 c 0
 347 1086 311 1048 311 990 c 0
 311 795 969 804 969 381 c 0
 969 68 609 -23 422 -23 c 0
 192 -23 24 42 -30 126 c 1xe8
EndSplineSet
Colour: ffff00
EndChar

StartChar: T
Encoding: 84 84 86
Width: 1264
VWidth: 0
Flags: HW
HStem: 0 21G<250 989.091> 1072 172<260 440 801 985>
VStem: 440 361<208 1072>
LayerCount: 2
Fore
SplineSet
0 1244 m 1
 1264 1244 l 1
 1232 796 l 1
 1049 827 l 1
 985 1072 l 1
 801 1072 l 1
 801 208 l 1
 1003 153 l 1
 987 0 l 1
 250 0 l 1
 263 138 l 1
 440 207 l 1
 440 1072 l 1
 260 1072 l 1
 173 786 l 1
 3 812 l 1
 0 1244 l 1
EndSplineSet
EndChar

StartChar: Thorn
Encoding: 222 222 91
Width: 1185
VWidth: 0
Flags: HW
HStem: 283 178<579.075 799.35> 822 202<561 778.404> 1224 20G<22.0667 738>
VStem: 209 352<466 818.751 1019 1020> 814 371<469.611 784.185>
LayerCount: 2
Fore
SplineSet
9 1094 m 1
 29 1244 l 1
 756 1244 l 1
 740 1084 l 1
 561 1017 l 1
 561 982 l 1
 600 989 640 993 680 993 c 0
 994 993 1195 942 1195 645 c 0
 1195 405 997 242 698 242 c 0
 672 242 645 244 617 247 c 1
 585 421 l 1
 606 421 l 2
 755 421 825 476 825 597 c 0
 825 719 762 790 630 790 c 0
 609 790 586 787 563 783 c 1
 561 783 l 1
 561 223 l 1
 741 160 l 1
 728 0 l 1
 11 0 l 1
 21 142 l 1
 197 221 l 1
 197 1020 l 1
 9 1094 l 1
EndSplineSet
EndChar

StartChar: U
Encoding: 85 85 92
Width: 1551
VWidth: 0
Flags: HW
HStem: -27 260<683.401 1010.89> 1224 20G<25.1333 749 956.333 1544>
VStem: 190 372<358.416 1020> 1115 243<342.992 1020>
LayerCount: 2
Fore
SplineSet
0 1094 m 1
 29 1244 l 1
 749 1244 l 1
 727 1094 l 1
 562 1027 l 1
 562 541 l 2
 562 320 683 233 858 233 c 0
 1011 233 1115 324 1115 537 c 2
 1115 1020 l 1
 939 1094 l 1
 959 1244 l 1
 1544 1244 l 1
 1527 1094 l 1
 1362 1027 l 1
 1358 565 l 2
 1354 155 1148 -27 777 -27 c 0
 545 -27 190 -5 190 484 c 2
 190 1020 l 1
 0 1094 l 1
EndSplineSet
EndChar

StartChar: V
Encoding: 86 86 106
Width: 1470
VWidth: 0
Flags: HW
HStem: 1224 20G<17.4522 776 883.089 1470>
DStem2: 591 1027 145 1025 0.378839 -0.925463<0 649.858> 826 421 927 35 0.369128 0.929379<0 641.815>
LayerCount: 2
Fore
SplineSet
0 1087 m 1
 20 1244 l 1
 776 1244 l 1
 753 1087 l 1
 591 1027 l 1
 826 421 l 1
 1044 1025 l 1
 870 1087 l 1
 885 1244 l 1
 1470 1244 l 1
 1455 1087 l 1
 1321 1027 l 1
 927 35 l 1
 574 -23 l 1
 145 1025 l 1
 0 1087 l 1
EndSplineSet
EndChar

StartChar: W
Encoding: 87 87 107
Width: 2037
VWidth: 0
Flags: HW
HStem: 1224 20G<9.58065 766 1455.38 2037>
DStem2: 577 1027 176 1023 0.279683 -0.960092<0 562.481> 731 486 1004.58 721.31 0.238052 0.971252<0 293.67> 1451 502 1545 38 0.319084 0.947726<0 549.219>
LayerCount: 2
Fore
SplineSet
1005 721 m 1
 827 38 l 1
 481 -24 l 1
 176 1023 l 1
 0 1089 l 1
 11 1244 l 1
 766 1244 l 1
 730 1081 l 1
 577 1027 l 1
 731 486 l 1
 906 1200 l 1
 1245 1240 l 1
 1451 502 l 1
 1604 1030 l 1
 1437 1084 l 1
 1458 1244 l 1
 2037 1244 l 1
 2012 1087 l 1
 1880 1033 l 1
 1545 38 l 1
 1212 -23 l 1
 1005 721 l 1
EndSplineSet
EndChar

StartChar: X
Encoding: 88 88 112
Width: 1344
VWidth: 0
Flags: HW
HStem: 0 21G<0 563.713 674 1320.91> 1224 20G<37.8539 686 796.625 1308>
LayerCount: 2
Back
SplineSet
1313 235 m 13
 720 1000 l 5
 781 1076 l 5
 804 1244 l 5
 210 1244 l 5
 182 1076 l 5
 321 1002 l 13
 905 241 l 5
 825 166 l 5
 796 0 l 5
 1420 0 l 5
 1446 169 l 5
 1313 235 l 13
306 233 m 13
 1009 1014 l 5
 975 1084 l 5
 1002 1244 l 5
 1440 1244 l 5
 1416 1087 l 5
 1286 1015 l 13
 600 232 l 5
 653 167 l 5
 622 0 l 5
 152 0 l 5
 177 157 l 5
 306 233 l 13
EndSplineSet
Fore
SplineSet
13 1066 m 1
 41 1244 l 1
 686 1244 l 1
 659 1076 l 1
 568 1010 l 1
 793 726 l 1
 1241 225 l 1
 1344 179 l 1
 1318 0 l 1
 674 0 l 1
 703 166 l 1
 793 231 l 1
 549 533 l 1
 139 1012 l 1
 13 1066 l 1
580 662 m 17
 887 1014 l 1
 773 1084 l 1
 800 1244 l 1
 1308 1244 l 1
 1284 1087 l 1
 1154 1015 l 1
 827 662 l 9
 580 662 l 17
772 636 m 17
 448 232 l 1
 591 167 l 1
 560 0 l 1
 0 0 l 1
 25 157 l 1
 154 233 l 1
 522 636 l 9
 772 636 l 17
EndSplineSet
EndChar

StartChar: Y
Encoding: 89 89 113
Width: 1328
VWidth: 0
Flags: HW
HStem: 0 21G<306 1009.86> 1225 20G<47.8974 713 831.943 1308>
VStem: 483 371<221 485>
LayerCount: 2
Fore
SplineSet
20 1089 m 1
 52 1245 l 1
 713 1245 l 1
 685 1089 l 1
 610 1028 l 1
 759 739 l 1
 910 1025 l 1
 811 1087 l 1
 835 1244 l 1
 1308 1244 l 1
 1284 1087 l 1
 1170 1027 l 1
 854 498 l 1
 854 221 l 1
 1021 140 l 1
 1008 0 l 1
 306 0 l 1
 324 138 l 1
 483 217 l 1
 483 485 l 1
 154 1027 l 1
 20 1089 l 1
EndSplineSet
EndChar

StartChar: Z
Encoding: 90 90 118
Width: 1072
VWidth: 0
Flags: HW
HStem: 0 21G<11.8983 1013.81> 1069 175<291 631>
DStem2: 0 236 377 206 0.612949 0.790123<207.378 1044.94>
LayerCount: 2
Fore
SplineSet
0 236 m 1
 631 1069 l 1
 291 1069 l 1
 228 812 l 1
 28 844 l 1
 39 1244 l 1
 1070 1244 l 1
 1062 1089 l 1
 377 206 l 1
 735 176 l 1
 922 457 l 1
 1072 434 l 1
 1011 0 l 1
 13 0 l 1
 0 236 l 1
EndSplineSet
EndChar

StartChar: a
Encoding: 97 97 122
Width: 932
VWidth: 0
Flags: HW
HStem: -23 228<148.708 389.062> 398 114<341.153 458> 746 202<276.761 593.5>
VStem: 0 296<115.565 337.22> 458 308<253.97 398 512 715.059>
LayerCount: 2
Back
SplineSet
44.5508 -30.6172 m 0
 -164 -30.6172 -223 59 -223 267 c 2
 -223 613 l 1
 -348 718 l 1xe0
 -314 901 l 1
 50 923 l 1
 106 870 l 1
 106 469 l 1
 106 341 127 295.972 188.729 295.972 c 0
 235 295.972 272 310 313 346 c 1
 313 604 l 1xe0
 184 680 l 1
 218 889 l 1
 576 931 l 1
 629 878 l 1
 629 373 l 6
 629 270 658.366 236.918 767 202 c 6
 795 193 l 5xd0
 770 23 l 5
 694.861 -12.2344 603.684 -34.877 523.626 -34.877 c 4
 415.096 -34.877 327 6.73438 327 115 c 6
 327 128 l 5
 314 134 l 5
 254 27 140 -30.6172 44.5508 -30.6172 c 0
EndSplineSet
Fore
SplineSet
0 188 m 4
 0 366 162 514 458 512 c 5
 458 607 l 6
 458 700 392 746 343 746 c 4
 286 746 262 698 239 568 c 5
 150 554 34 596 34 713 c 4
 34 846 338 948 481 948 c 4
 706 948 766 853 766 641 c 6
 766 374 l 6
 766 271 795 248 904 213 c 6
 932 204 l 5
 907 34 l 5
 832 -1 769 -24 671 -24 c 4
 562 -24 500 26 469 106 c 6
 464 119 l 5
 451 125 l 5
 421 45 307 -23 201 -23 c 4
 97 -23 0 43 0 188 c 4
458 234 m 5
 458 398 l 5
 334 384 296 322 296 279 c 4
 296 239 325 205 376 205 c 4
 401 205 430 214 458 234 c 5
EndSplineSet
EndChar

StartChar: acute
Encoding: 180 180 127
Width: 247
VWidth: 0
Flags: HW
HStem: 1358 346
VStem: 0 247
LayerCount: 2
Fore
SplineSet
0 1399 m 1
 105 1704 l 1
 317 1685 l 1
 137 1378 l 1
 0 1399 l 1
EndSplineSet
EndChar

StartChar: ae
Encoding: 230 230 129
Width: 1331
VWidth: 0
Flags: HW
HStem: -31 181<832 1140.94> -19 186<127.5 436.254> 380 139<336.793 462> 754 197<311.182 554.5 885 954.307>
VStem: 951 324<603 761.457>
LayerCount: 2
Fore
SplineSet
0 188 m 0
 0 366 162 514 458 512 c 1
 458 607 l 2
 458 700 392 746 343 746 c 0
 286 746 262 698 239 568 c 1
 150 554 34 596 34 713 c 0
 34 846 338 948 481 948 c 0
 587 948 657 927 701 882 c 1
 774 926 856 950 938 950 c 0
 1158 950 1274 792 1274 580 c 0
 1274 549 1259 432 1253 401 c 1
 775 397 l 1
 783 265 880 199 1025 199 c 0
 1101 199 1202 214 1273 255 c 1
 1292 122 l 1
 1200 0 1005 -31 875 -31 c 0
 725 -31 601 25 526 135 c 1
 513 141 l 1
 438 0 307 -23 201 -23 c 0
 97 -23 0 43 0 188 c 0
772 516 m 1
 942 531 l 1
 947 546 948 591 948 605 c 0
 948 671 927 743 865 743 c 0
 795 743 770 646 772 516 c 1
458 234 m 1
 458 398 l 1
 334 384 296 322 296 279 c 0
 296 239 325 206 376 206 c 0
 401 206 430 214 458 234 c 1
EndSplineSet
EndChar

StartChar: ampersand
Encoding: 38 38 132
Width: 1386
VWidth: 0
Flags: HW
HStem: -29 233<280 587.981> 920 20G<918 1386> 1102 171<465.775 592.505>
VStem: 0 332<265.038 473.269> 191 269<922.653 1095.38> 611 246<848.74 1085.31>
DStem2: 535 887 811 120 0.69462 -0.719376<-129.089 944.219>
LayerCount: 2
Fore
SplineSet
0 300 m 0xf4
 0 754 611 610 611 973 c 0
 611 1063 567 1102 526 1102 c 0
 492 1102 460 1075 460 1029 c 0
 460 992 480 944 535 887 c 10
 1012 393 l 2
 1097 305 1207 199 1289 162 c 2
 1335 141 l 1
 1305 6 l 1
 1279 -2 1178 -18 1124 -18 c 0
 986 -18 896 37 811 120 c 10
 322 649 l 2
 262 714 191 846 191 935 c 0xec
 191 1151 396 1273 579 1273 c 0
 725 1273 857 1192 857 1024 c 0
 857 616 332 671 332 393 c 0
 332 286 408 204 497 204 c 0
 553 204 611 238 666 313 c 10
 978 741 l 17
 897 780 l 1
 921 940 l 1
 1386 940 l 1
 1364 780 l 1
 1190 722 l 9
 797 182 l 18
 698 46 535 -29 379 -29 c 0
 181 -29 0 44 0 300 c 0xf4
EndSplineSet
EndChar

StartChar: ampersand.osf
Encoding: 65537 -1 133
Width: 1148
VWidth: 0
Flags: HW
HStem: -18 218<216.518 466.566> -13 669<597.018 892.018> 519 137<1073.91 1126.02>
VStem: 421 250<674.019 880.861>
LayerCount: 2
Fore
SplineSet
0 207 m 1xb0
 0 552 441 489 441 760 c 0
 441 865.144 394.727 904.961 369.163 904.961 c 0
 344.943 904.961 321.359 869.219 321.359 819.429 c 0
 321.359 777.868 337.791 726.52 384 678 c 2
 810 229 l 2
 839 199 999 155 1030 147 c 2
 1034 145 l 1
 1003 11 l 1
 977 3 892 -13 838 -13 c 0x50
 690 -13 568.281 58.2275 474 176 c 2
 153 552 l 2
 111 601 95.0852 657.686 95.0852 712.55 c 0
 95.0852 872.079 242.883 1026 404 1026 c 0
 557 1026 661 936.098 661 808 c 0
 661 474 260 525 260 250 c 0
 260 203.112 313.832 167.06 365.168 167.06 c 0
 457.77 167.06 607.327 251.832 718 452 c 1
 664 519 l 1
 689 656 l 1
 1057 656 l 1
 1035 519 l 1
 897 456 l 1
 655 74 452 -18 268 -18 c 0
 165 -18 -2 18 0 207 c 1xb0
EndSplineSet
EndChar

StartChar: approxequal
Encoding: 8776 8776 135
Width: 964
VWidth: 0
Flags: HW
LayerCount: 2
Fore
SplineSet
6 725 m 1
 -16 925 66 1146 342 1079 c 2
 684 996 l 2
 753 980 790 1085 790 1085 c 1
 964 1067 l 1
 962 789 835 675 590 739 c 2
 275 821 l 2
 192 843 184 715 184 715 c 1
 6 725 l 1
6 322 m 1
 -16 522 66 743 342 676 c 2
 684 593 l 2
 753 577 790 682 790 682 c 1
 964 664 l 1
 962 386 835 272 590 336 c 2
 275 418 l 2
 192 440 184 312 184 312 c 1
 6 322 l 1
EndSplineSet
EndChar

StartChar: asciicircum
Encoding: 94 94 137
Width: 640
VWidth: 0
Flags: HW
HStem: 769 481
VStem: 0 640
LayerCount: 2
Fore
SplineSet
0 825 m 1
 241 1237 l 1
 385 1250 l 1
 640 823 l 1
 518 789 l 1
 302 963 l 1
 291 963 l 1
 114 796 l 1
 0 825 l 1
EndSplineSet
EndChar

StartChar: asciitilde
Encoding: 126 126 138
Width: 788
VWidth: 0
Flags: HW
DStem2: 93 607 32 374 0.996079 0.0884725<-30.8848 610.514>
LayerCount: 2
Fore
SplineSet
-134 282 m 1
 -156 482 -74 763 202 696 c 2
 544 613 l 2
 613 597 650 702 650 702 c 1
 824 684 l 1
 822 406 695 232 450 296 c 2
 135 378 l 2
 52 400 44 272 44 272 c 1
 -134 282 l 1
EndSplineSet
EndChar

StartChar: asterisk
Encoding: 42 42 139
Width: 740
VWidth: 0
Flags: HW
LayerCount: 2
Fore
SplineSet
0 913 m 1
 82 1088 l 1
 315 993 l 1
 260 1300 l 1
 449 1275 l 1
 423 1005 l 1
 703 1175 l 1
 740 989 l 1
 485 906 l 1
 727 714 l 1
 556 623 l 1
 411 824 l 1
 285 548 l 1
 146 686 l 1
 317 876 l 1
 0 913 l 1
EndSplineSet
EndChar

StartChar: at
Encoding: 64 64 140
Width: 1396
VWidth: 0
Flags: HW
HStem: -221 128<494.106 983.782> 81 162<848.5 1076.66> 197 89<654.45 702> 669 127<655.996 867.757> 929 114<560.316 1000.36>
VStem: -2 228<162.874 547.922> 319 277<288.047 528.279> 1186 210<420.636 754.286>
DStem2: 704 298 979 395 0.108643 0.994081<-16.2883 370.361>
LayerCount: 2
Fore
SplineSet
860 1043 m 0xdf
 1138 1043 1396 895 1396 622 c 0
 1396 352 1165 81 892 81 c 0xdf
 805 81 699 99 702 197 c 1
 691 197 l 1xbf
 639 122 570 86 506 86 c 0
 407 86 319 173 319 342 c 0
 319 549 479 796 840 796 c 0
 895 796 950 790 1003 778 c 1
 1019 761 l 1
 979 395 l 2
 965 265 970 243 1013 243 c 0
 1135 243 1186 476 1186 567 c 0
 1186 806 1026 930 789 929 c 0
 424 928 226 675 226 391 c 0
 226 93 390 -93 761 -93 c 0
 894 -93 1026 -54 1122 26 c 1
 1167 -84 l 1
 1052 -172 872 -221 687 -221 c 0
 240 -221 -2 37 -2 326 c 0
 -2 665 318 1043 860 1043 c 0xdf
596 387 m 0
 596 306 620 286 649 286 c 0xbf
 667 286 687 293 704 298 c 1
 751 658 l 1
 746 654 748 669 717 669 c 0
 619 669 596 434 596 387 c 0
EndSplineSet
Colour: ffff00
EndChar

StartChar: b
Encoding: 98 98 142
Width: 1078
VWidth: 0
Flags: HW
HStem: -23 225<478.192 668.711> 645 285<584.618 833.5>
VStem: 145 316<226.269 608.594 781.471 943> 729 349<290.399 602.438>
LayerCount: 2
Back
SplineSet
-184 0 m 1
 -167 157 l 1
 -25 229 l 1
 -25 640 l 1
 -167 721 l 1
 -140 889 l 1
 263 918 l 1
 301 879 l 1
 278 777 l 1
 293 771 l 1
 385 867 470 928.617 582.449 928.617 c 0
 728 928.617 828 849 828 641 c 2
 828 229 l 1
 976 165 l 1
 953 0 l 1
 517 0 l 1
 517 157 l 1
 517 229 l 1
 517 429 l 2
 517 557.365 484 602.028 422.271 602.028 c 0
 376 602.028 334 588 293 552 c 1
 293 229 l 1
 416 166 l 1
 388 0 l 1
 -184 0 l 1
EndSplineSet
Fore
SplineSet
0 1043 m 5
 28 1208 l 5
 404 1234 l 5
 461 1180 l 5
 461 878 l 5
 446 777 l 5
 461 771 l 5
 542 861 613 930 725 930 c 4
 942 930 1078 752 1078 497 c 4
 1078 179 810 -23 522 -23 c 4
 434 -23 241 -2 145 51 c 5
 145 943 l 5
 0 1043 l 5
461 259 m 5
 504 220 547 202 586 202 c 4
 667 202 729 302 729 447 c 4
 729 544 693 645 609 645 c 4
 570 645 521 626 461 578 c 5
 461 259 l 5
EndSplineSet
EndChar

StartChar: backslash
Encoding: 92 92 143
Width: 696
VWidth: 0
Flags: HW
DStem2: 235 1316 0 1333 0.261654 -0.965162<0 1714.55>
LayerCount: 2
Fore
SplineSet
0 1333 m 1
 235 1316 l 1
 696 -410 l 1
 469 -397 l 1
 0 1333 l 1
EndSplineSet
EndChar

StartChar: bar
Encoding: 124 124 144
Width: 196
VWidth: 0
Flags: HW
HStem: 1240 20G<0 196>
VStem: 0 196<-363 1248>
LayerCount: 2
Fore
SplineSet
0 -363 m 1
 0 1260 l 1
 196 1248 l 1
 196 -379 l 1
 0 -363 l 1
EndSplineSet
EndChar

StartChar: braceright
Encoding: 125 125 146
Width: 667
VWidth: 0
Flags: HW
HStem: 1235 20G<147 451.5>
VStem: 140 527
LayerCount: 2
Fore
SplineSet
0 -379 m 1
 12 -173 l 1
 136 -169 l 2
 289 -164 95 293 331 446 c 1
 331 459 l 1
 95 503 268 1046 146 1049 c 2
 13 1052 l 1
 7 1255 l 1
 247 1255 l 2
 656 1255 343 614 619 557 c 2
 677 545 l 1
 677 346 l 1
 616 333 l 2
 351 276 660 -379 245 -379 c 2
 0 -379 l 1
EndSplineSet
EndChar

StartChar: bracketright
Encoding: 93 93 148
Width: 477
VWidth: 0
Flags: HW
HStem: -376 205<-173 -54> 1094 161<-163 -88.1208>
VStem: -54 231<-157 1075>
LayerCount: 2
Back
SplineSet
-189 -217 m 5
 -159 -378 l 5
 267 -378 l 5
 271 1255 l 5
 -169 1255 l 5
 -187 1050 l 5
 40 1034 l 5
 40 -198 l 5
 -189 -217 l 5
EndSplineSet
Fore
SplineSet
7 1094 m 1
 37 1255 l 1
 473 1255 l 1
 477 -378 l 1
 28 -378 l 1
 0 -214 l 1
 246 -193 l 1
 246 1075 l 1
 7 1094 l 1
EndSplineSet
EndChar

StartChar: breve
Encoding: 728 728 149
Width: 384
VWidth: 0
Flags: HW
HStem: 1371 177<82.896 300.433>
VStem: 0 384
LayerCount: 2
Fore
SplineSet
-30 1579 m 1
 69 1599 l 1
 96 1563 120 1548 189 1548 c 0
 258 1548 297 1560 321 1599 c 1
 404 1574 l 1
 373 1486 300 1371 189 1371 c 0
 48 1371 -8 1493 -30 1579 c 1
EndSplineSet
EndChar

StartChar: brokenbar
Encoding: 166 166 150
Width: 219
VWidth: 0
Flags: HW
VStem: 0 219<-351 411 552 1248>
LayerCount: 2
Fore
SplineSet
0 -351 m 1
 0 415 l 5
 219 387 l 5
 219 -379 l 1
 0 -351 l 1
0 528 m 5
 0 1274 l 1
 216 1248 l 1
 218 505 l 5
 0 528 l 5
EndSplineSet
EndChar

StartChar: c
Encoding: 99 99 152
Width: 857
VWidth: 0
Flags: HW
HStem: -31 231<448.618 684.109> 764 203<371.634 644.31>
VStem: 0 333<328.031 644.183>
LayerCount: 2
Fore
SplineSet
0 426 m 0
 0 777 298 967 538 967 c 0
 743 967 833 852 833 714 c 0
 833 598 749 532 641 520 c 1
 568 735 517 764 446 764 c 0
 364 764 333 685 333 515 c 0
 333 359 416 200 573 200 c 0
 683 200 740 225 817 271 c 1
 857 167 l 1
 806 59 653 -31 482 -31 c 0
 128 -31 0 153 0 426 c 0
EndSplineSet
EndChar

StartChar: caron
Encoding: 711 711 154
Width: 406
VWidth: 0
Flags: HW
HStem: 1358 223
VStem: 0 406
DStem2: 258 1486 236 1368 0.700895 0.713264<0 127.324>
LayerCount: 2
Fore
SplineSet
-50 1554 m 1
 135 1581 l 1
 248 1516 l 1
 258 1516 l 1
 344 1580 l 1
 446 1571 l 5
 256 1368 l 1
 158 1358 l 1
 -50 1554 l 1
EndSplineSet
EndChar

StartChar: cedilla
Encoding: 184 184 158
Width: 265
VWidth: 0
Flags: HW
HStem: -388 391<124 175.449>
VStem: 0 265
LayerCount: 2
Fore
SplineSet
0 -178 m 1
 104 3 l 1
 228 3 l 1
 166 -96 l 1
 203 -120 265 -157 265 -226 c 0
 265 -307 174 -357 62 -388 c 1
 26 -300 l 1
 50 -290 62 -275 62 -256 c 0
 62 -232 41 -202 0 -178 c 1
EndSplineSet
EndChar

StartChar: cent
Encoding: 162 162 159
Width: 857
VWidth: 0
Flags: HW
HStem: -31 31<382 552> 981 41<377 548> 1229 20G<346 571.134>
VStem: -27 342<428.449 590>
LayerCount: 2
Fore
SplineSet
0 452 m 0
 0 803 298 1012 538 1012 c 0
 743 1012 833 868 833 730 c 0
 833 614 749 548 641 536 c 1
 568 751 517 810 446 810 c 0
 364 810 333 701 333 531 c 0
 333 375 416 230 573 230 c 0
 683 230 750 265 827 311 c 1
 867 177 l 1
 816 69 653 -31 482 -31 c 0
 128 -31 0 179 0 452 c 0
346 1232 m 1
 573 1249 l 1
 548 981 l 1
 377 981 l 1
 346 1232 l 1
356 -266 m 1
 382 0 l 1
 552 0 l 1
 585 -250 l 1
 356 -266 l 1
EndSplineSet
EndChar

StartChar: circumflex
Encoding: 710 710 160
Width: 402
VWidth: 0
Flags: HW
HStem: 1356 224
VStem: 0 402
LayerCount: 2
Fore
SplineSet
-10 1365 m 1
 131 1560 l 1
 248 1580 l 1
 412 1375 l 1
 321 1356 l 1
 192 1417 l 1
 178 1417 l 1
 75 1355 l 1
 -10 1365 l 1
EndSplineSet
EndChar

StartChar: comma
Encoding: 44 44 162
Width: 444
VWidth: 0
Flags: HW
HStem: -377 118<1.33406 44.1882> 10 268<15.6943 116.74>
VStem: 127 273<-159.056 89.0371>
LayerCount: 2
Back
SplineSet
0 127 m 0
 0 192 46 280 209 280 c 0
 382 280 427 194 427 130 c 0
 427 45 376 -26 208 -26 c 0
 34 -26 0 54 0 127 c 0
EndSplineSet
Fore
SplineSet
202 278 m 0
 382 278 445 166 445 12 c 0
 445 -152 325 -338 51 -377 c 1
 7 -259 l 1
 123 -221 172 -142 172 -80 c 0
 172 -23 133 10 85 10 c 0
 68 10 49 6 31 -3 c 1
 10 32 0 60 0 96 c 0
 -1 216 86 278 202 278 c 0
EndSplineSet
EndChar

StartChar: commaaccent
Encoding: 806 806 163
Width: 224
VWidth: 0
Flags: HW
HStem: -390 305<54.8153 133.828>
LayerCount: 2
Fore
SplineSet
147 -85 m 0
 202 -85 275 -112 275 -199 c 0
 275 -325 201 -399 32 -390 c 1
 10 -330 l 1
 53 -323 78 -300 78 -263 c 0
 78 -240 57 -218 6 -211 c 1
 7 -120 72 -85 147 -85 c 0
EndSplineSet
EndChar

StartChar: copyright
Encoding: 169 169 164
Width: 1389
VWidth: 0
Flags: HW
HStem: 10 205<496.867 878.025> 272 187<709.917 911.258> 1020 144<576.638 780.995> 1199 198<521.783 921.096>
VStem: 0 232<486.588 891.383> 228 311<701.32 858.74> 1152 237<512.318 947.873>
LayerCount: 2
Fore
SplineSet
-20 687 m 0xfa
 -20 1131 294 1397 697 1397 c 0
 1127 1397 1389 1116 1389 700 c 0
 1389 345 1086 10 688 10 c 0
 240 10 -20 275 -20 687 c 0xfa
186 708 m 0
 186 345 404 170 694 170 c 0
 970 170 1198 349 1198 690 c 0
 1198 976 1043 1244 683 1244 c 0
 363 1244 186 1023 186 708 c 0
EndSplineSet
Refer: 152 99 N 0.836469 0 0 0.837353 303 321 2
EndChar

StartChar: currency
Encoding: 164 164 165
Width: 830
VWidth: 0
Flags: HW
HStem: 212 152<338.88 490.487> 610 149<336.909 490.876>
VStem: 151 166<382.994 590.144> 510 172<380.194 593.632>
LayerCount: 2
Fore
SplineSet
-10 733 m 1
 156 886 l 1
 295 741 l 1
 327 769 378 784 428 784 c 0
 470 784 511 773 539 752 c 1
 680 891 l 1
 845 732 l 1
 696 595 l 1
 712 566 720 527 720 488 c 0
 720 447 711 405 691 372 c 1
 850 221 l 1
 674 71 l 1
 529 226 l 1
 490 203 450 190 409 190 c 0
 376 190 342 199 310 218 c 1
 164 54 l 1
 -1 212 l 1
 154 362 l 1
 131 395 119 439 119 484 c 0
 119 521 128 559 146 589 c 1
 -10 733 l 1
311 491 m 0
 311 416 363 364 418 364 c 0
 475 364 524 411 524 485 c 0
 524 563 476 610 419 610 c 0
 364 610 311 564 311 491 c 0
EndSplineSet
EndChar

StartChar: d
Encoding: 100 100 166
Width: 1064
VWidth: 0
Flags: HW
HStem: -19 272<214.986 485.411> 700 211<392.514 549.264> 1244 20G<549.576 860.283>
VStem: 0 337<308.044 601.289> 592 306<268.969 655.223 883 972>
LayerCount: 2
Back
SplineSet
24 188 m 0
 24 366 186 514 482 512 c 1
 482 607 l 2
 482 700 416.126 746.405 367.311 746.405 c 0
 310 746.405 286 698 263 568 c 1
 174 554 58 596 58 713 c 0
 58 846 362 948 505 948 c 0
 730 948 790 853 790 641 c 2
 790 374 l 6
 790 271 819.366 247.918 928 213 c 6
 956 204 l 5
 931 34 l 5
 855.861 -1.23438 793 -23.877 694.626 -23.877 c 4
 586.096 -23.877 523.953 25.5205 493 106 c 6
 488 119 l 5
 475 125 l 5
 445.271 44.8848 330.999 -22.6348 224.929 -22.6348 c 0
 120.488 -22.6348 24 43.1309 24 188 c 0
482 234 m 1
 482 398 l 1
 358 384 319.793 322.834 319.793 279.474 c 0
 319.793 239.258 349.213 205.522 400.331 205.522 c 0
 425.794 205.522 454.158 213.893 482 234 c 1
EndSplineSet
Fore
SplineSet
487 911 m 4
 518 911 576 900 602 883 c 5
 606 883 l 5
 596 956 l 5
 596 972 l 5
 423 1073 l 5
 448 1237 l 5
 838 1264 l 5
 898 1209 l 5
 898 375 l 6
 898 272 927 249 1036 214 c 6
 1064 205 l 5
 1039 35 l 5
 964 0 901 -23 803 -23 c 4
 694 -23 632 27 601 107 c 6
 596 120 l 5
 583 126 l 5
 529 51 461 -19 323 -19 c 4
 106 -19 0 163 0 367 c 4
 0 626 151 910 487 911 c 4
477 253 m 4
 509 253 546 264 592 291 c 5
 592 610 l 5
 539 674 494 700 456 700 c 4
 380 700 337 573 337 467 c 4
 337 360 381 253 477 253 c 4
EndSplineSet
EndChar

StartChar: dagger
Encoding: 8224 8224 167
Width: 809
VWidth: 0
Flags: HW
HStem: 666 194<7 302 503 800> 1235 20G<298.199 510>
VStem: 302 201<-351 667 853 1244>
LayerCount: 2
Fore
SplineSet
0 666 m 1
 7 860 l 1
 302 853 l 1
 298 1255 l 1
 510 1244 l 1
 503 853 l 1
 809 860 l 1
 800 657 l 1
 503 667 l 1
 516 -362 l 1
 292 -351 l 1
 302 671 l 1
 0 666 l 1
EndSplineSet
EndChar

StartChar: daggerdbl
Encoding: 8225 8225 168
Width: 803
VWidth: 0
Flags: HW
HStem: 26 184<12 291 482 793> 666 196<4 298 499 798> 1235 20G<294.201 508>
VStem: 291 191<-137.467 26 212 631.547> 298 201<562.725 669 856 1244>
LayerCount: 2
Fore
SplineSet
0 666 m 1xe8
 4 862 l 1
 298 856 l 1
 290 1255 l 1
 504 1244 l 1
 489 856 l 1
 793 862 l 1
 788 660 l 1
 489 669 l 1xe8
 478 430 l 1
 482 212 l 1
 800 217 l 1
 793 19 l 1
 482 26 l 1
 496 -362 l 1
 281 -351 l 1
 291 26 l 1
 1 19 l 1
 12 224 l 1
 291 210 l 1xf0
 301 497 l 1
 298 674 l 1
 0 666 l 1xe8
EndSplineSet
EndChar

StartChar: dcroat
Encoding: 273 273 170
Width: 1052
VWidth: 0
Flags: HW
HStem: -19 239<391.388 496.03> 937 124<600 891> 1232 20G<630.588 857.818>
VStem: 0 325<299.088 605.222> 583 306<211 671.924> 600 0<953 1031>
LayerCount: 2
Fore
SplineSet
487 911 m 0
 518 911 576 900 602 883 c 1
 606 883 l 1
 596 956 l 1
 596 972 l 1
 423 1073 l 1
 448 1237 l 1
 838 1264 l 1
 898 1209 l 1
 898 375 l 2
 898 272 927 249 1036 214 c 2
 1064 205 l 1
 1039 35 l 1
 964 0 901 -23 803 -23 c 0
 694 -23 632 27 601 107 c 2
 596 120 l 1
 583 126 l 1
 529 51 461 -19 323 -19 c 0
 106 -19 0 163 0 367 c 0
 0 626 151 910 487 911 c 0
477 253 m 0
 509 253 546 264 592 291 c 1
 592 610 l 1
 539 674 494 700 456 700 c 0
 380 700 337 573 337 467 c 0
 337 360 381 253 477 253 c 0
636 856 m 1
 656 1061 l 1
 1049 1061 l 1
 1031 856 l 1
 636 856 l 1
EndSplineSet
EndChar

StartChar: degree
Encoding: 176 176 171
Width: 323
VWidth: 0
Flags: HW
HStem: 947 46<125.468 209.313> 1237 49<112.506 194.873>
VStem: 0 92<1003.35 1228.02> 229 94<1005.1 1224.29>
LayerCount: 2
Fore
SplineSet
0 1110 m 0
 0 1204 74 1286 165 1286 c 0
 259 1286 323 1214 323 1123 c 0
 323 1035 253 947 151 947 c 0
 57 947 0 1008 0 1110 c 0
92 1137 m 0
 92 1076 116 993 162 993 c 0
 200 993 229 1019 229 1092 c 0
 229 1153 201 1237 158 1237 c 0
 114 1237 92 1191 92 1137 c 0
EndSplineSet
EndChar

StartChar: dieresis
Encoding: 168 168 172
Width: 594
VWidth: 0
Flags: HW
HStem: 1383 158<21.7748 264.038 290.563 533.528>
VStem: 269 19<1423 1500>
LayerCount: 2
Back
SplineSet
0 1464 m 4
 0 1504 102 1541 146 1541 c 4
 203 1541 288 1500 288 1464 c 4
 288 1423 191 1383 143 1383 c 4
 97 1383 0 1418 0 1464 c 4
269 1464 m 4
 269 1504 368 1541 412 1541 c 4
 469 1541 558 1500 558 1464 c 4
 558 1423 459 1383 411 1383 c 4
 365 1383 269 1418 269 1464 c 4
EndSplineSet
Fore
Refer: 289 46 S 0.66 0 0 0.7 313 1376 2
Refer: 289 46 S 0.66 0 0 0.7 4 1376 2
EndChar

StartChar: divide
Encoding: 247 247 174
Width: 823
VWidth: 0
Flags: HW
HStem: 71 316<265.396 539.959> 411 186<12 814> 629 310<265.396 539.959>
VStem: 170 465<154.741 308.543 712.741 864.775>
LayerCount: 2
Fore
SplineSet
191 218 m 0
 191 283 237 371 400 371 c 0
 573 371 618 285 618 221 c 0
 618 136 567 65 399 65 c 0
 225 65 191 145 191 218 c 0
191 781 m 0
 191 846 237 934 400 934 c 0
 573 934 618 848 618 784 c 0
 618 699 567 628 399 628 c 0
 225 628 191 708 191 781 c 0
0 411 m 1
 12 597 l 1
 823 597 l 1
 814 411 l 1
 0 411 l 1
EndSplineSet
EndChar

StartChar: dollar
Encoding: 36 36 175
Width: 939
VWidth: 0
Flags: HW
HStem: 1105 161<365.983 568.641>
VStem: 26 323<684.5 1048.39> 609 330<221.361 579.5> 651 173<865 939.621>
LayerCount: 2
Fore
SplineSet
0 136 m 1xe0
 34 468 l 1
 211 439 l 1
 273 212 l 1
 363 97 609 110 609 288 c 0xe0
 609 446 26 507 26 862 c 0
 26 1145 259 1266 528 1266 c 0
 635 1266 749 1235 852 1187 c 1
 852 1163 824 835 824 835 c 1
 651 865 l 1xd0
 612 1068 l 17
 584 1091 491 1105 451 1105 c 0
 397 1105 349 1078 349 1007 c 0
 349 781 939 762 939 397 c 0
 939 84 599 -23 412 -23 c 0
 268 -23 64 55 0 136 c 1xe0
409 1390 m 1
 697 1425 l 1
 653 1239 l 1
 566 1203 l 1
 525 681 l 1
 504 612 l 1
 462 78 l 1
 542 40 l 1
 545 -158 l 1
 259 -183 l 1
 295 9 l 1
 378 98 l 1
 418 606 l 1
 440 690 l 1
 481 1206 l 1
 421 1239 l 1
 409 1390 l 1
EndSplineSet
EndChar

StartChar: dollar.osf
Encoding: 65538 -1 176
Width: 715
VWidth: 0
Flags: HW
HStem: 887 16<342 474>
VStem: 0 249<385.5 675.376> 460 255<134.549 381.81>
LayerCount: 2
Fore
SplineSet
34 634 m 0
 34 746 126 948 431 948 c 0
 631 948 764 885 764 773 c 0
 764 684 671 621 573 611 c 1
 540 697 l 2
 507 783 437 799 388 799 c 0
 334 799 303 770 303 732 c 0
 303 612 779 576 779 272 c 0
 779 71 594 -36 348 -36 c 0
 183 -36 0 42 0 167 c 0
 0 264 72 318 192 328 c 1
 230 194 298 124 375 124 c 0
 453 124 484 137 484 186 c 0
 484 300 34 336 34 634 c 0
311 -196 m 1
 336 -15 l 1
 474 -6 l 1
 498 -178 l 1
 311 -196 l 1
313 1068 m 1
 503 1085 l 1
 474 907 l 1
 342 907 l 1
 313 1068 l 1
EndSplineSet
EndChar

StartChar: dotaccent
Encoding: 729 729 177
Width: 427
VWidth: 0
Flags: HW
HStem: 1312 315<95.6931 372.632>
VStem: 0 475<1400.54 1548.81>
LayerCount: 2
Fore
SplineSet
0 1473 m 4
 0 1538 46 1626 209 1626 c 4
 382 1626 427 1540 427 1476 c 4
 427 1391 376 1320 208 1320 c 4
 34 1320 0 1400 0 1473 c 4
EndSplineSet
EndChar

StartChar: dotaccentcomb
Encoding: 775 775 178
Width: 427
VWidth: 0
Flags: HW
HStem: 1312 315<95.6931 372.632>
VStem: 0 475<1400.54 1548.81>
LayerCount: 2
Fore
SplineSet
0 1473 m 0
 0 1538 46 1626 209 1626 c 0
 382 1626 427 1540 427 1476 c 0
 427 1391 376 1320 208 1320 c 0
 34 1320 0 1400 0 1473 c 0
EndSplineSet
EndChar

StartChar: dotbelowcomb
Encoding: 803 803 179
Width: 392
VWidth: 0
Flags: HW
HStem: -379 245<63.625 325.25>
VStem: 0 392<-320.949 -193.249>
LayerCount: 2
Fore
SplineSet
4 -256 m 0
 4 -204 45 -134 192 -134 c 0
 348 -134 389 -203 389 -254 c 0
 389 -322 343 -378 192 -378 c 0
 35 -378 4 -314 4 -256 c 0
EndSplineSet
EndChar

StartChar: dotlessi
Encoding: 305 305 180
Width: 638
VWidth: 0
Flags: HW
HStem: 0 21G<0 628.264>
VStem: 162 314<230 571>
LayerCount: 2
Fore
SplineSet
0 0 m 1
 8 176 l 1
 162 230 l 1
 162 571 l 1
 14 676 l 1
 47 854 l 1
 420 880 l 1
 476 819 l 1
 476 230 l 1
 638 174 l 1
 627 0 l 1
 0 0 l 1
EndSplineSet
EndChar

StartChar: e
Encoding: 101 101 181
Width: 845
VWidth: 0
Flags: HW
HStem: -31 230<413.123 688.869> 743 207<354.226 601>
VStem: 0 328<285.621 397 516 639.078> 501 326<529.758 728.837>
LayerCount: 2
Fore
SplineSet
0 430 m 4
 0 733 246 950 491 950 c 4
 711 950 827 792 827 580 c 4
 827 549 812 432 806 401 c 5
 328 397 l 5
 336 265 433 199 578 199 c 4
 654 199 755 214 826 255 c 5
 845 122 l 5
 753 0 558 -31 428 -31 c 4
 177 -31 0 124 0 430 c 4
325 516 m 5
 495 531 l 5
 500 546 501 591 501 605 c 4
 501 671 480 743 418 743 c 4
 348 743 323 646 325 516 c 5
EndSplineSet
EndChar

StartChar: eight
Encoding: 56 56 188
Width: 950
VWidth: 0
Flags: HW
HStem: -27 142<400.891 589.699> 1063 136<397.737 533.08>
VStem: -8 342<183.636 427.793> 37 355<809.091 1017.78> 581 299<800.689 1016.04> 608 333<184.561 388.984>
LayerCount: 2
Fore
SplineSet
206 558 m 5xe4
 206 573 l 5
 98 659 37 754 37 863 c 4
 37 1032 180 1199 497 1199 c 4
 736 1199 880 1064 880 925 c 4xd8
 880 834 807 738 687 681 c 5
 688 665 l 5
 870 546 941 448 941 331 c 4
 941 140 734 -27 429 -27 c 4
 124 -27 -8 120 -8 270 c 4
 -8 391 51 495 206 558 c 5xe4
510 115 m 4
 567 115 608 157 608 193 c 4
 608 272 501 325 348 454 c 5
 326 418 334 389 334 347 c 4xe4
 334 224 386 115 510 115 c 4
392 986 m 4xd8
 392 926 447 828 542 769 c 5
 576 792 581 830 581 874 c 4
 581 999 510 1063 455 1063 c 4
 420 1063 392 1037 392 986 c 4xd8
EndSplineSet
EndChar

StartChar: eight.osf
Encoding: 65539 -1 189
Width: 956
VWidth: 0
Flags: HW
HStem: -27 157<194.62 400.437> 1060 139<343.743 413.118>
VStem: 0 313<272 432.743> 44 297<852.496 985.078> 397 286<792.747 1057.91> 431 302<179.6 423.582>
LayerCount: 2
Fore
SplineSet
216 558 m 1xe4
 216 573 l 1
 108 659 47 754 47 863 c 0
 47 1032 190 1199 507 1199 c 0
 746 1199 890 1064 890 925 c 0xd8
 890 834 817 738 697 681 c 1
 698 665 l 1
 880 546 951 448 951 331 c 0
 951 140 744 -27 439 -27 c 0
 134 -27 2 120 2 270 c 0
 2 391 61 495 216 558 c 1xe4
520 115 m 0
 577 115 618 157 618 193 c 0
 618 272 511 325 358 454 c 1
 336 418 344 389 344 347 c 0xe4
 344 224 396 115 520 115 c 0
402 986 m 0xd8
 402 926 457 828 552 769 c 1
 586 792 591 830 591 874 c 0
 591 999 520 1063 465 1063 c 0
 430 1063 402 1037 402 986 c 0xd8
EndSplineSet
EndChar

StartChar: emdash
Encoding: 8212 8212 192
Width: 1146
VWidth: 0
Flags: HW
HStem: 367 187<21 1120>
LayerCount: 2
Fore
SplineSet
0 367 m 1
 21 554 l 1
 1391 562 l 1
 1365 372 l 1
 0 367 l 1
EndSplineSet
EndChar

StartChar: emptyset
Encoding: 8709 8709 193
Width: 1042
VWidth: 0
Flags: HW
HStem: -37 212<357.03 646.214> 710 216<390.069 641.556> 921 20G<871.303 902.53>
VStem: 62 252<275.828 627.972> 718 253<247.25 567.32>
LayerCount: 2
Fore
SplineSet
0 142 m 1xb8
 126 221 l 1
 220 227 l 1
 836 778 l 1
 787 822 l 1
 888 941 l 1
 1042 729 l 1
 928 649 l 1
 882 679 l 1
 248 111 l 1
 252 47 l 1
 155 -70 l 1
 0 142 l 1xb8
62 443 m 0
 62 696 286 926 519 926 c 0xd8
 798 926 971 712 971 442 c 0
 971 186 796 -37 520 -37 c 0
 266 -37 62 152 62 443 c 0
314 442 m 0
 314 237 417 175 518 175 c 0
 633 175 718 231 718 443 c 0
 718 647 620 710 516 710 c 0
 401 710 314 634 314 442 c 0
EndSplineSet
EndChar

StartChar: endash
Encoding: 8211 8211 194
Width: 638
VWidth: 0
Flags: HW
HStem: 367 187<23 609>
VStem: 0 638
LayerCount: 2
Fore
SplineSet
0 367 m 1
 23 554 l 1
 758 562 l 5
 729 372 l 5
 0 367 l 1
EndSplineSet
EndChar

StartChar: eng
Encoding: 331 331 195
Width: 1108
VWidth: 0
Flags: HW
HStem: 0 21G<0 615.374> 683 252<584.148 687.665>
VStem: 159 318<229 590> 704 308<27.0643 657.123>
LayerCount: 2
Fore
SplineSet
1012 155 m 2
 1012 641 l 2
 1012 849 912 929 766 929 c 0
 654 929 569 867 477 771 c 1
 462 777 l 1
 485 879 l 1
 447 918 l 1
 44 889 l 1
 17 721 l 1
 159 640 l 1
 159 229 l 1
 17 157 l 1
 0 0 l 1
 572 0 l 1
 600 166 l 1
 477 229 l 1
 477 552 l 1
 518 588 560 602 606 602 c 0
 668 602 699 557 701 429 c 2
 704 245 l 2
 704 -25 553 -135 446 -213 c 1
 529 -382 l 1
 571 -371 l 2
 757 -309 1012 -175 1012 155 c 2
EndSplineSet
EndChar

StartChar: equal
Encoding: 61 61 197
Width: 630
VWidth: 0
Flags: HW
HStem: 276 188<7 613> 517 182<10 617>
VStem: 0 630
LayerCount: 2
Fore
SplineSet
-3 557 m 1
 8 745 l 1
 633 745 l 1
 620 557 l 1
 -3 557 l 1
0 276 m 1
 11 464 l 1
 636 464 l 1
 623 276 l 1
 0 276 l 1
EndSplineSet
EndChar

StartChar: eth
Encoding: 240 240 198
Width: 944
VWidth: 0
Flags: HW
HStem: -27 180<407.772 608.322> 783 164<376.184 511.635> 947 68<453.255 509.758> 997 122<345 425.956>
VStem: 0 334<242.626 639.41> 626 318<258.77 658.264>
LayerCount: 2
Back
SplineSet
0 451 m 0x9c
 0 745 300 947 514 947 c 0
 399 947 474 1082 505 1006 c 1
 510 1012 l 1
 505 985 490 979 487 1015 c 1xac
 336 997 l 1
 345 1119 l 1
 441 1136 l 1
 431 1174 404 1233 326 1302 c 1
 542 1302 l 1
 527 1318 588 1284 668 1199 c 1
 795 1219 l 1
 784 1090 l 1
 754 1084 l 1
 828 978 944 779 944 464 c 0
 944 157 685 -27 471 -27 c 0
 125 -27 0 207 0 451 c 0x9c
334 497 m 1
 344 309 378 153 492 153 c 0
 646 153 626 209 626 423 c 0
 626 493 578 773 501 783 c 1
 488 783 l 1xcc
 375 789 334 740 334 497 c 1
EndSplineSet
Fore
SplineSet
334 497 m 5
 344 309 424 153 512 153 c 4
 612 153 616 248 616 453 c 4
 616 523 574 752 531 783 c 5
 518 783 l 5
 405 789 334 740 334 497 c 5
0 451 m 4
 0 745 304 1006 534 917 c 5
 538 923 l 5
 529 951 513 996 492 1046 c 5
 290 1006 l 5
 298 1132 l 5
 436 1163 l 5
 406 1219 371 1271 336 1302 c 5
 592 1302 l 5
 624 1277 654 1249 682 1219 c 5
 846 1256 l 5
 834 1114 l 5
 772 1102 l 5
 882 933 942 723 942 531 c 4
 942 231 797 -27 471 -27 c 4
 125 -27 0 207 0 451 c 4
EndSplineSet
EndChar

StartChar: exclam
Encoding: 33 33 199
Width: 512
VWidth: 0
Flags: HW
HStem: -26 306<54.5732 373.05>
VStem: 0 427<23.125 227.875> 19 360<816.387 1273.74>
LayerCount: 2
Back
SplineSet
10 1094 m 5
 30 1244 l 5
 757 1244 l 5
 741 1084 l 5
 562 1017 l 5
 562 223 l 5
 742 160 l 5
 729 0 l 5
 12 0 l 5
 22 142 l 5
 198 221 l 5
 198 1020 l 5
 10 1094 l 5
EndSplineSet
Fore
SplineSet
225 1306 m 0xa0
 329 1306 379 1287 379 1215 c 0
 379 978 335 597 300 362 c 1
 133 391 l 1
 88 628 19 1094 19 1194 c 0
 19 1260 70 1306 225 1306 c 0xa0
EndSplineSet
Refer: 289 46 N 1 0 0 1 0 0 2
EndChar

StartChar: f
Encoding: 102 102 201
Width: 778
VWidth: 0
Flags: HW
HStem: 0 21G<0 700.93> 700 166<463 712> 700 149<27 109.432> 1134 152<488.324 639.325>
VStem: 167 296<240 700 873 1055.82>
LayerCount: 2
Back
SplineSet
790.311 602.595 m 4
 790.311 780.595 628.311 928.595 332.311 926.595 c 5
 332.311 1021.59 l 6
 332.311 1114.59 398.185 1161 447 1161 c 4
 504.311 1161 528.311 1112.59 551.311 982.595 c 5
 640.311 968.595 756.311 1010.59 756.311 1127.59 c 4
 756.311 1260.59 452.311 1362.59 309.311 1362.59 c 4
 84.3105 1362.59 24.3105 1267.59 24.3105 1055.59 c 6
 24.3105 788.595 l 6
 24.3105 685.595 -5.05566 662.513 -113.689 627.595 c 6
 -141.689 618.595 l 5
 -116.689 448.595 l 5
 -41.5508 413.36 21.3105 390.718 119.685 390.718 c 4
 228.215 390.718 290.357 440.115 321.311 520.595 c 6
 326.311 533.595 l 5
 339.311 539.595 l 5
 369.039 459.479 483.312 391.96 589.382 391.96 c 4
 693.822 391.96 790.311 457.726 790.311 602.595 c 4
332.311 648.595 m 5
 332.311 812.595 l 5
 456.311 798.595 494.518 737.429 494.518 694.068 c 4
 494.518 653.853 465.098 620.117 413.979 620.117 c 4
 388.517 620.117 360.152 628.487 332.311 648.595 c 5
-186 0 m 1
 -171 176 l 1
 -19 230 l 1
 -19 966 l 1
 -186 1068 l 1
 -152 1241 l 1
 239 1266 l 1
 296 1209 l 1
 296 230 l 1
 452 174 l 1
 439 0 l 1
 -186 0 l 1
EndSplineSet
Fore
SplineSet
0 0 m 5xd8
 12 158 l 5
 167 230 l 5
 167 700 l 5
 17 700 l 5
 27 849 l 5xb8
 165 873 l 5
 181 1131 364 1286 612 1286 c 4
 719 1286 895 1279 895 1135 c 4
 895 1045 791 972 708 965 c 5
 669 1043 636 1134 567 1134 c 4
 508 1134 463 1108 463 955 c 6
 463 866 l 5
 726 866 l 5
 712 700 l 5
 463 700 l 5
 463 240 l 5
 708 172 l 5
 700 0 l 5
 0 0 l 5xd8
EndSplineSet
EndChar

StartChar: f.alt2
Encoding: 65540 -1 202
Width: 778
VWidth: 0
Flags: HW
HStem: 0 21G<0 700.93> 756 166<463 707> 756 149<27 109.432> 1076 223<471.267 672.835>
VStem: 167 296<240 756>
LayerCount: 2
Fore
SplineSet
0 0 m 1xd8
 12 158 l 1
 167 230 l 1
 167 700 l 1
 17 700 l 1
 27 849 l 1xb8
 165 873 l 1
 181 1131 324 1286 572 1286 c 0
 679 1286 805 1254 805 1135 c 0
 805 1045 701 972 618 965 c 1
 591 1062 576 1134 517 1134 c 0
 468 1134 463 1108 463 955 c 2
 463 866 l 1
 726 866 l 1
 712 700 l 1
 463 700 l 1
 463 240 l 1
 708 172 l 1
 700 0 l 1
 0 0 l 1xd8
EndSplineSet
EndChar

StartChar: five
Encoding: 53 53 203
Width: 806
VWidth: 0
Flags: HW
HStem: -62 179<252.296 454.83> 888 310<498.048 701>
VStem: 59 150<325.704 392> 483 323<199.077 479.5>
LayerCount: 2
Fore
SplineSet
0 7 m 1
 59 428 l 1
 209 392 l 1
 251 157 l 1
 282 132 314 117 360 117 c 0
 439 117 483 176 483 248 c 0
 483 369 351 519 72 519 c 1
 195 1166 l 1
 744 1198 l 1
 701 888 l 1
 303 875 l 1
 291 770 l 1
 653 768 806 578 806 381 c 0
 806 164 621 -62 324 -62 c 0
 196 -62 65 -46 0 7 c 1
EndSplineSet
EndChar

StartChar: five.osf
Encoding: 65541 -1 204
Width: 735
VWidth: 0
Flags: HW
HStem: -298 149<85.5725 403.78>
VStem: 418 318<53.0475 330.764>
LayerCount: 2
Fore
SplineSet
90 44 m 1
 137.21 -48.2502 244.492 -140.795 332.748 -140.795 c 0
 445.271 -140.795 500.139 -58.4463 500.139 44.783 c 0
 500.139 205.849 346.564 347.748 90 377 c 1
 246 980 l 1
 758 1017 l 1
 717 760 l 1
 310 757 l 1
 296 663 l 1
 624.556 603.438 782.496 392.441 782.496 168.449 c 0
 782.496 -73.8742 597.648 -308 244 -308 c 0
 45.7822 -308 -26.309 -217.247 -26.309 -126.983 c 0
 -26.309 -52.7178 22.4925 21.2162 90 44 c 1
EndSplineSet
EndChar

StartChar: four
Encoding: 52 52 205
Width: 1115
VWidth: 0
Flags: HW
HStem: -2 128<1026.17 1074> -2 109<284 331.404> 319 195<315 531 860 1099> 1223 20G<726.847 822.364>
VStem: 531 329<183 316 514 817>
LayerCount: 2
Fore
SplineSet
0 464 m 1x78
 746 1243 l 1
 872 1210 l 1
 866 1090 860 863 860 682 c 2
 860 514 l 1
 1115 514 l 1
 1099 316 l 1
 860 316 l 1
 860 183 l 1
 1082 126 l 1
 1074 -2 l 1xb8
 280 -2 l 1
 284 107 l 1
 532 182 l 1
 532 319 l 1
 25 319 l 1
 0 464 l 1x78
315 514 m 1
 531 514 l 1
 531 817 l 1
 315 514 l 1
EndSplineSet
EndChar

StartChar: four.osf
Encoding: 65542 -1 206
Width: 1067
VWidth: 0
Flags: HW
HStem: 8 227<303 507 820 1047>
VStem: 507 313<-260 8 235 527>
LayerCount: 2
Fore
SplineSet
0 181 m 1
 698 1022 l 1
 854 988 l 1
 848 868 845 527 845 346 c 2
 845 235 l 1
 1097 235 l 1
 1077 8 l 1
 850 8 l 1
 850 -260 l 1
 507 -317 l 1
 507 13 l 1
 39 13 l 1
 0 181 l 1
303 235 m 1
 511 235 l 1
 511 527 l 1
 303 235 l 1
EndSplineSet
EndChar

StartChar: fraction
Encoding: 8260 8260 207
Width: 1402
VWidth: 0
Flags: HW
HStem: 1 21G<231.704 383.695>
LayerCount: 2
Fore
SplineSet
0 55 m 1
 557 608 l 1
 1100 1227 l 1
 1402 1225 l 1
 1402 1150 l 1
 861 611 l 1
 368 1 l 1x43c0
 0 55 l 1
EndSplineSet
EndChar

StartChar: g
Encoding: 103 103 208
Width: 1027
VWidth: 0
Flags: HW
HStem: -385 188<359.253 631.028> 2 242<411.286 617.725> 333 131<463 552.23> 814 130<394.747 525.453>
VStem: 93 278<501.791 774.508> 568 278<491.983 706.089> 649 311<-149.509 82>
LayerCount: 2
Fore
SplineSet
0 -149 m 0xfa
 0 -97 54 -18 158 5 c 1
 158 22 l 1
 93 54 64 103 64 154 c 0
 64 240 145 331 263 352 c 1
 260 370 l 1
 145 430 93 526 93 623 c 0
 93 783 235 944 472 944 c 0
 637 944 710 904 751 881 c 1
 987 913 l 1
 1017 879 l 1
 972 686 l 1
 938 682 l 1
 848 710 l 1
 843 705 l 1
 845 688 846 671 846 655 c 0xfc
 846 446 676 333 480 333 c 0
 458 333 437 335 416 338 c 1
 392 272 426 249 544 244 c 2
 620 241 l 2
 847 232 960 168 960 -4 c 0
 960 -184 754 -385 386 -385 c 0
 250 -385 0 -345 0 -149 c 0xfa
305 3 m 1
 276 -95 367 -197 469 -197 c 0
 580 -197 649 -177 649 -103 c 0xfa
 649 -33 569 0 403 2 c 2
 305 3 l 1
371 645 m 0
 371 467 494 464 463 464 c 0
 553 464 568 497 568 638 c 0xfc
 568 653 553 814 450 814 c 0
 411 814 371 777 371 645 c 0
EndSplineSet
EndChar

StartChar: germandbls
Encoding: 223 223 212
Width: 1462
VWidth: 0
Flags: HW
HStem: 0 21G<516.168 981.168> 704 128<547.168 631.937> 1112 200<1036.55 1330.17>
VStem: 681 300<230 704 855 976.655> 1041 230<431.5 732.692> 1516 258<150.667 455>
LayerCount: 2
Back
SplineSet
0 0 m 1
 12 158 l 1
 165 230 l 1
 165 704 l 1
 26 704 l 1
 31 832 l 1
 167 855 l 1
 186 1043 455 1312 710 1312 c 0
 918 1312 962 1154 962 1052 c 1
 962 783 755 849 755 687 c 0
 755 593 1258 648 1258 262 c 0
 1258 114 1064 -21 912 -21 c 0
 660 -21 568 62 568 77 c 0
 568 221 655 303 802 299 c 1
 844 257 988 170 944 170 c 0
 954 170 1000 76 1000 191 c 0
 1000 272 525 269 525 594 c 0
 525 772 692 814 692 929 c 1
 692 1041 712 1112 590 1112 c 0
 535 1112 463 1125 463 766 c 2
 465 0 l 1
 0 0 l 1
EndSplineSet
Fore
SplineSet
1295 272 m 0
 1295 71 1110 -36 864 -36 c 0
 699 -36 516 42 516 167 c 0
 516 264 588 318 708 328 c 1
 746 194 814 123 891 123 c 0
 969 123 1000 137 1000 186 c 0
 1000 300 550 346 550 644 c 0
 550 903 808 951 808 1035 c 0
 808 1092 757 1134 608 1134 c 0
 549 1134 464 1108 464 955 c 2
 464 0 l 1
 1 0 l 1xd8
 13 158 l 1
 168 230 l 1
 168 700 l 1
 18 700 l 1
 28 849 l 1xb8
 166 873 l 1
 182 1131 405 1286 653 1286 c 0
 912 1286 1149 1236 1149 1056 c 0
 1149 830 819 855 819 745 c 0
 819 620 1295 609 1295 272 c 0
EndSplineSet
EndChar

StartChar: grave
Encoding: 96 96 213
Width: 288
VWidth: 0
Flags: HW
HStem: 1317 379
VStem: 0 288
LayerCount: 2
Fore
SplineSet
0 1656 m 1
 218 1696 l 1
 368 1348 l 1
 209 1317 l 1
 0 1656 l 1
EndSplineSet
EndChar

StartChar: greater
Encoding: 62 62 214
Width: 699
VWidth: 0
Flags: HW
LayerCount: 2
Fore
SplineSet
0 36 m 1
 268 454 l 1
 12 840 l 1
 159 974 l 1
 699 454 l 1
 698 430 l 1
 146 -84 l 1
 0 36 l 1
EndSplineSet
EndChar

StartChar: guilsinglleft
Encoding: 8249 8249 218
Width: 357
VWidth: 0
Flags: HW
VStem: 3 354
LayerCount: 2
Fore
SplineSet
0 447 m 1
 3 469 l 1
 270 818 l 1
 344 712 l 1
 229 460 l 1
 357 192 l 1
 263 75 l 1
 0 447 l 1
EndSplineSet
EndChar

StartChar: h
Encoding: 104 104 220
Width: 1165
VWidth: 0
Flags: HW
HStem: 600 327<588.136 844.225> 1244 20G<126.111 436.818>
VStem: 174 318<227 581.65> 174 301<802.666 972> 706 311<227 584.223>
LayerCount: 2
Fore
SplineSet
174 227 m 1xe8
 174 972 l 5
 0 1073 l 5
 25 1237 l 5
 415 1264 l 5
 475 1209 l 5
 475 898 l 5xd8
 455 765 l 1
 470 759 l 1
 562 855 659 927 771 927 c 0
 917 927 1017 847 1017 639 c 2
 1017 227 l 1
 1165 163 l 1
 1142 -2 l 1
 706 -2 l 1
 706 155 l 1
 706 227 l 1
 706 427 l 2
 706 555 673 600 611 600 c 0
 565 600 533 586 492 550 c 1
 492 227 l 1
 605 164 l 1
 577 -2 l 1
 15 -2 l 1
 32 155 l 1
 174 227 l 1xe8
EndSplineSet
EndChar

StartChar: hbar
Encoding: 295 295 221
Width: 1176
VWidth: 0
Flags: HW
HStem: 0 21<10 1140.07> 897 134<0 848> 920 20<673.5 794> 1244 20<127.111 437.818>
VStem: 175 301<230 719.695 841.187 972> 692 316<229 673.59>
LayerCount: 2
Fore
SplineSet
285 989 m 1xdc
 285 1141 l 1
 824 1141 l 1
 818 989 l 1
 285 989 l 1xdc
EndSplineSet
Refer: 220 104 N 1 0 0 1 11 0 2
EndChar

StartChar: hungarumlaut
Encoding: 733 733 222
Width: 549
VWidth: 0
Flags: HW
HStem: 1356 292
VStem: 0 549
DStem2: 348 1530 259 1356 0.866583 0.499032<-156.571 0>
LayerCount: 2
Fore
SplineSet
-94 1395 m 1
 185 1650 l 1
 390 1626 l 1
 45 1356 l 1
 -94 1395 l 1
184 1395 m 1
 442 1647 l 1
 651 1619 l 1
 319 1356 l 1
 184 1395 l 1
EndSplineSet
EndChar

StartChar: hyphen
Encoding: 45 45 223
Width: 597
VWidth: 0
Flags: HW
HStem: 357 200
VStem: 0 425
LayerCount: 2
Fore
SplineSet
0 357 m 5
 15 535 l 5
 595 557 l 5
 580 372 l 5
 0 357 l 5
EndSplineSet
EndChar

StartChar: i
Encoding: 105 105 224
Width: 638
VWidth: 0
Flags: HW
HStem: 0 21G<0 628.264> 908 20G<143.704 440> 1028 312<129.978 475.328>
VStem: 70 468<1085.07 1281.87> 162 314<230 619>
LayerCount: 2
Fore
SplineSet
0 0 m 5xe8
 8 176 l 5
 162 230 l 5
 162 619 l 5
 14 728 l 5
 47 901 l 5
 420 928 l 5
 476 872 l 5
 476 230 l 5
 638 174 l 5
 627 0 l 5
 0 0 l 5xe8
70 1188 m 4xf0
 70 1272 149 1340 302 1340 c 4
 461 1340 538 1269 538 1187 c 4
 538 1104 470 1028 300 1028 c 4
 125 1028 70 1104 70 1188 c 4xf0
EndSplineSet
EndChar

StartChar: infinity
Encoding: 8734 8734 231
Width: 1268
VWidth: 0
Flags: HW
HStem: 162 325<727.5 1036.5> 169 294<261 405.625> 596 319<754.683 1101.78> 639 278<198.018 398.784>
VStem: 0 149<395 596.792> 1106 162<498.364 606.376>
LayerCount: 2
Fore
SplineSet
586 309 m 1xe4
 601 309 l 1
 687 201 792 140 901 140 c 0
 1070 140 1237 283 1237 600 c 0
 1237 839 1102 983 963 983 c 0xd8
 872 983 740 915 709 790 c 1
 693 791 l 1
 574 973 486 984 369 984 c 0
 178 984 11 813 11 532 c 0
 11 279 158 145 308 145 c 0
 429 145 536 189 586 309 c 1xe4
472 501 m 1
 436 479 397 473 351 473 c 0
 203 473 156 548 156 613 c 0
 156 675 192 693 232 693 c 0
 296 693 360 630 472 501 c 1
1024 495 m 0xd8
 964 495 866 550 807 645 c 1
 830 679 868 684 912 684 c 0
 1037 684 1101 613 1101 558 c 0
 1101 523 1075 495 1024 495 c 0xd8
EndSplineSet
EndChar

StartChar: integral
Encoding: 8747 8747 232
Width: 1131
VWidth: 0
Flags: HW
HStem: -388 186<167.5 401.382> 1115 191<761.223 962.5>
VStem: 405 301<-44.3506 842.384>
LayerCount: 2
Back
SplineSet
417 843 m 6
 416.158 1101 614 1286 862 1286 c 4
 969.051 1286 1145.41 1278.74 1145.41 1135.1 c 4
 1145.41 1045.26 1041.28 972.015 958 965 c 5
 919 1043 886 1134 817 1134 c 4
 758 1134 715 1108 715 955 c 6
 715 55 l 6
 715 -203 516 -388 268 -388 c 4
 160.949 -388 -15.4102 -380.74 -15.4102 -237.1 c 4
 -15.4102 -147.26 88.7246 -74.0146 172 -67 c 5
 211 -145 244 -236 313 -236 c 4
 372 -236 417 -210 417 -57 c 6
 417 843 l 6
EndSplineSet
Fore
SplineSet
417 843 m 2
 417 1101 614 1286 862 1286 c 0
 969 1286 1145 1279 1145 1135 c 0
 1145 1045 1041 972 958 965 c 1
 919 1043 886 1134 817 1134 c 0
 758 1134 715 1108 715 955 c 2
 715 55 l 2
 715 -203 516 -388 268 -388 c 0
 84 -388 -35 -331 -35 -187 c 0
 -35 -97 48 0 162 3 c 1
 195 -90 244 -226 313 -226 c 0
 384 -226 417 -195 417 48 c 2
 417 843 l 2
EndSplineSet
EndChar

StartChar: j
Encoding: 106 106 234
Width: 631
VWidth: 0
Flags: HW
HStem: 913 20G<194.739 535.264> 1011 335<223.65 563.97>
VStem: 157 475<1075.14 1281.94> 256 316<6.1897 616>
LayerCount: 2
Fore
SplineSet
157 1183 m 0xe0
 157 1273 237 1346 392 1346 c 0
 553 1346 632 1270 632 1182 c 0
 632 1093 563 1011 390 1011 c 0
 212 1011 157 1093 157 1183 c 0xe0
0 -213 m 1
 107 -135 256 -52 256 218 c 2
 256 616 l 1
 110 728 l 1
 147 910 l 1
 513 933 l 1
 572 880 l 1
 572 150 l 2xd0
 572 -192 320 -304 132 -371 c 2
 81 -382 l 1
 0 -213 l 1
EndSplineSet
EndChar

StartChar: k
Encoding: 107 107 235
Width: 1157
VWidth: 0
Flags: HW
HStem: -18 993<750 1044> 0 21G<0 570.874>
VStem: 167 315<230 937>
LayerCount: 2
Fore
SplineSet
0 0 m 1x60
 16 176 l 1
 167 230 l 1
 167 937 l 1
 0 1039 l 1
 34 1211 l 1
 422 1239 l 1
 482 1180 l 1
 482 230 l 1
 593 174 l 1
 568 0 l 1
 0 0 l 1x60
504 402 m 1
 514 447 l 1
 537 486 l 1
 699 760 l 1
 564 817 l 1
 586 975 l 1
 1122 975 l 1xa0
 1093 824 l 1
 946 761 l 1
 780 503 l 1
 793 483 l 2
 917 292 1007 206 1116 135 c 2
 1157 108 l 1
 1130 0 l 1x60
 1117 -1 1044 -18 937 -18 c 0xa0
 750 -18 646 157 504 402 c 1
EndSplineSet
EndChar

StartChar: l
Encoding: 108 108 237
Width: 638
VWidth: 0
Flags: HW
HStem: 0 21G<0 626.494> 1246 20G<112.2 445>
VStem: 167 315<230 966>
LayerCount: 2
Fore
SplineSet
0 0 m 5
 15 176 l 5
 167 230 l 5
 167 966 l 5
 0 1068 l 5
 34 1241 l 5
 425 1266 l 5
 482 1209 l 5
 482 230 l 5
 638 174 l 5
 625 0 l 5
 0 0 l 5
EndSplineSet
EndChar

StartChar: logicalnot
Encoding: 172 172 243
Width: 762
VWidth: 0
Flags: HW
HStem: 459 202<12 586>
VStem: 586 176<351 459>
LayerCount: 2
Fore
SplineSet
-10 459 m 1
 2 661 l 1
 805 661 l 1
 805 261 l 1
 586 241 l 1
 586 459 l 1
 -10 459 l 1
EndSplineSet
EndChar

StartChar: lozenge
Encoding: 9674 9674 244
Width: 788
VWidth: 0
Flags: HW
LayerCount: 2
Fore
SplineSet
0 476 m 1
 384 818 l 1
 788 482 l 1
 386 143 l 1
 0 476 l 1
EndSplineSet
EndChar

StartChar: lslash
Encoding: 322 322 245
Width: 670
VWidth: 0
Flags: HW
HStem: 0 21G<34 659.379> 1246 20G<146.2 478.298>
VStem: 196 318<230 966>
DStem2: 32 505 0 283 0.754632 0.656148<0 642.503>
LayerCount: 2
Fore
SplineSet
66 492 m 1
 98 714 l 1
 651 1009 l 1
 622 786 l 1
 66 492 l 1
34 0 m 1
 48 176 l 1
 196 230 l 1
 196 966 l 1
 36 1068 l 1
 68 1241 l 1
 459 1266 l 1
 514 1209 l 1
 514 230 l 1
 670 174 l 1
 658 0 l 1
 34 0 l 1
EndSplineSet
EndChar

StartChar: m
Encoding: 109 109 246
Width: 1696
VWidth: 0
Flags: HW
HStem: 0 21G<0 575.373 701 1122.79 1237 1675.79> 602 327<583.136 823.696 1119.14 1375.22>
VStem: 159 318<229 582.668> 701 311<229 584.61> 1237 311<229 586.223>
LayerCount: 2
Back
SplineSet
-116 0 m 1
 -99 157 l 1
 43 229 l 1
 43 660 l 1
 -99 721 l 1
 -72 889 l 1
 331 918 l 1
 369 879 l 1
 346 777 l 1
 361 771 l 1
 453 867 538 928.617 650.449 928.617 c 0
 796 928.617 896 849 896 641 c 2
 896 229 l 1
 1044 165 l 1
 1021 0 l 1
 585 0 l 1
 585 157 l 1
 585 229 l 1
 585 429 l 2
 585 557.365 552 602.028 490.271 602.028 c 0
 444 602.028 402 588 361 552 c 1
 361 229 l 1
 484 166 l 1
 456 0 l 1
 -116 0 l 1
EndSplineSet
Fore
SplineSet
0 0 m 1
 17 157 l 1
 159 229 l 1
 159 640 l 1
 17 721 l 1
 44 889 l 1
 447 918 l 1
 485 879 l 1
 462 777 l 1
 477 771 l 1
 569 867 654 929 766 929 c 0
 880 929 967 879 999 757 c 1
 1090 850 1192 929 1302 929 c 0
 1448 929 1548 849 1548 641 c 2
 1548 229 l 1
 1696 165 l 1
 1673 0 l 1
 1237 0 l 1
 1237 157 l 1
 1237 229 l 1
 1237 429 l 2
 1237 557 1204 602 1142 602 c 0
 1096 602 1053 591 1012 555 c 1
 1012 229 l 1
 1143 165 l 1
 1120 0 l 1
 701 0 l 1
 701 157 l 1
 701 229 l 1
 701 429 l 2
 701 557 668 602 606 602 c 0
 560 602 518 588 477 552 c 1
 477 229 l 1
 600 166 l 1
 572 0 l 1
 0 0 l 1
EndSplineSet
EndChar

StartChar: macron
Encoding: 175 175 247
Width: 464
VWidth: 0
Flags: HW
HStem: 1379 195<21 442>
VStem: 0 464
LayerCount: 2
Fore
SplineSet
0 1379 m 1
 21 1574 l 1
 474 1574 l 5
 452 1379 l 5
 0 1379 l 1
EndSplineSet
Colour: ffffff
EndChar

StartChar: minus
Encoding: 8722 8722 248
Width: 626
VWidth: 0
Flags: HW
HStem: 363 186<17 453.531> 382 187<189.469 611>
VStem: 0 626
LayerCount: 2
Fore
SplineSet
0 363 m 1xa0
 17 549 l 1xa0
 626 569 l 1
 611 382 l 1x60
 0 363 l 1xa0
EndSplineSet
EndChar

StartChar: mu
Encoding: 956 956 249
Width: 1128
VWidth: 0
Flags: HW
HStem: 927 20G<101.2 398.364 703.636 908.182>
VStem: 54 218<-361 -256.673> 105 329<210.197 637> 629 311<123.845 128 197 623> 940 157<60 159>
LayerCount: 2
Back
SplineSet
0 740 m 1xa0
 32 922 l 1
 378 947 l 1
 434 892 l 1
 434 309 l 2
 434 212 495 199 522 199 c 0
 610 199 574 191 629 197 c 1
 629 623 l 1xb0
 455 689 l 1
 480 903 l 1
 890 947 l 1
 940 892 l 1
 940 178 l 2
 940 60 1062 172 1085 159 c 2
 1097 156 l 1x88
 1086 -24 l 1
 940 -50 923 -37 829 -37 c 0
 690 -37 640 21 640 128 c 2
 640 120 l 1
 629 120 l 1
 497 23 467 -26 305 -26 c 0
 253 -26 247 -10 215 -8 c 5
 204 -8 l 5
 207 -26 233 -23 239 -87 c 5
 272 -387 l 5
 54 -361 l 5xd0
 52 -334 105 289 105 493 c 6
 105 637 l 1
 0 740 l 1xa0
EndSplineSet
Fore
SplineSet
275 -12 m 1
 264 -12 l 1
 284 -56 294 -116 300 -180 c 2
 322 -387 l 1
 54 -361 l 1
 72 -196 105 289 105 493 c 2
 105 613 l 1
 -20 718 l 1
 14 901 l 1
 378 923 l 1
 434 870 l 1
 434 469 l 2
 434 341 455 296 517 296 c 0
 563 296 600 310 641 346 c 1
 641 604 l 1
 512 680 l 1
 546 889 l 1
 904 931 l 1
 957 878 l 1
 957 373 l 2
 957 270 986 237 1095 202 c 2
 1123 193 l 1
 1098 23 l 1
 1023 -12 932 -35 852 -35 c 0
 743 -35 655 7 655 115 c 2
 655 128 l 1
 642 134 l 1
 582 27 468 -31 373 -31 c 0
 306 -31 314 -31 275 -12 c 1
 275 -12 l 1
EndSplineSet
EndChar

StartChar: multiply
Encoding: 215 215 250
Width: 523
VWidth: 0
Flags: HW
HStem: 209 505
VStem: 7 516
LayerCount: 2
Fore
SplineSet
-26 616 m 1
 122 732 l 1
 266 576 l 1
 435 747 l 1
 549 597 l 1
 383 456 l 1
 541 298 l 1
 395 176 l 1
 256 343 l 1
 101 178 l 1
 -18 328 l 1
 137 462 l 1
 -26 616 l 1
EndSplineSet
EndChar

StartChar: n
Encoding: 110 110 251
Width: 1160
VWidth: 0
Flags: HW
HStem: 0 21G<0 575.373 701 1139.79> 602 327<583.136 839.225>
VStem: 159 318<229 582.668> 701 311<229 586.223>
LayerCount: 2
Fore
SplineSet
0 0 m 5
 17 157 l 5
 159 229 l 5
 159 640 l 5
 17 721 l 5
 44 889 l 5
 447 918 l 5
 485 879 l 5
 462 777 l 5
 477 771 l 5
 569 867 654 929 766 929 c 4
 912 929 1012 849 1012 641 c 6
 1012 229 l 5
 1160 165 l 5
 1137 0 l 5
 701 0 l 5
 701 157 l 5
 701 229 l 5
 701 429 l 6
 701 557 668 602 606 602 c 4
 560 602 518 588 477 552 c 5
 477 229 l 5
 600 166 l 5
 572 0 l 5
 0 0 l 5
EndSplineSet
EndChar

StartChar: nine
Encoding: 57 57 256
Width: 918
VWidth: 0
Flags: HW
HStem: -25 115<218.892 263.061> 422 201<236 496.894> 1066 151<379.33 501.335>
VStem: 0 360<639.954 969.461> 537 381<653.476 1001.8>
LayerCount: 2
Fore
SplineSet
0 758 m 0
 0 1061 217 1217 457 1217 c 0
 781 1217 918 1047 918 781 c 0
 918 362 635 11 225 -25 c 1
 176 90 l 1
 363 164 499 297 527 467 c 1
 519 476 l 1
 472 435 380 422 305 422 c 0
 167 422 0 534 0 758 c 0
360 866 m 0
 360 702 382 623 440 623 c 0
 463 623 495 630 529 659 c 1
 534 694 537 773 537 828 c 0
 537 988 503 1067 439 1066 c 0
 382 1065 360 1008 360 866 c 0
EndSplineSet
EndChar

StartChar: nine.osf
Encoding: 65543 -1 257
Width: 810
VWidth: 0
Flags: HW
HStem: -325 135<193.027 255.959> 884 144<345.998 464.422>
VStem: 0 312<433.273 782.78> 491 319<476.646 785.879>
LayerCount: 2
Fore
SplineSet
0 568 m 0
 0 871 217 1027 457 1027 c 0
 781 1027 908 827 908 561 c 0
 908 48 578 -286 168 -322 c 1
 119 -207 l 1
 306 -133 489 36 517 277 c 1
 509 286 l 1
 462 245 380 232 305 232 c 0
 167 232 0 344 0 568 c 0
360 676 m 0
 360 512 382 433 440 433 c 0
 463 433 495 440 529 469 c 1
 534 504 537 583 537 638 c 0
 537 798 503 877 439 876 c 0
 382 875 360 818 360 676 c 0
EndSplineSet
EndChar

StartChar: notequal
Encoding: 8800 8800 258
Width: 787
VWidth: 0
Flags: HW
HStem: 265 186<44 234 259 424 439 742> 504 186<47 408 410 617 627 744>
LayerCount: 2
Fore
SplineSet
0 53 m 1
 234 365 l 1
 259 392 l 1
 410 611 l 1
 408 640 l 1
 568 866 l 1
 787 869 l 1
 627 640 l 1
 617 611 l 1
 439 381 l 1
 424 352 l 1
 219 58 l 1
 0 53 l 1
32 265 m 1
 44 451 l 1
 753 451 l 1
 742 265 l 1
 32 265 l 1
35 504 m 1
 47 690 l 1
 755 690 l 1
 744 504 l 1
 35 504 l 1
EndSplineSet
EndChar

StartChar: numbersign
Encoding: 35 35 260
Width: 1154
VWidth: 0
Flags: HW
HStem: 266 222<55 1026> 650 222<127 1101>
DStem2: 192 -26 405 -19 0.148135 0.988967<38.4755 1185.14> 547 -26 761 -19 0.148258 0.988949<38.6499 1185.14>
LayerCount: 2
Back
SplineSet
-285.096 896.475 m 1
 -98.5312 1109.69 l 1
 113.069 -665.491 l 1
 96.1084 46.8428 l 1
 -285.096 896.475 l 1
838.325 -43.6123 m 1
 1540.97 -180.91 l 1
 58.1494 550.807 l 1
 -654.185 688.105 l 1
 838.325 -43.6123 l 1
EndSplineSet
Fore
SplineSet
0 266 m 21
 55 488 l 13
 1080 488 l 17
 1026 266 l 9
 0 266 l 21
72 650 m 21
 127 872 l 13
 1154 872 l 17
 1101 650 l 9
 72 650 l 21
192 -26 m 9
 368 1146 l 17
 581 1156 l 9
 405 -19 l 17
 192 -26 l 9
547 -26 m 9
 723 1146 l 17
 937 1155 l 9
 761 -19 l 17
 547 -26 l 9
EndSplineSet
EndChar

StartChar: o
Encoding: 111 111 261
Width: 988
VWidth: 0
Flags: HW
HStem: -27 195<425.839 613.184> 743 208<386.807 571.889>
VStem: 20 334<248.887 661.59> 640 338<252.826 661.523>
LayerCount: 2
Fore
SplineSet
20 465 m 4
 20 771 292 951 515 951 c 4
 817 951 978 801 978 490 c 4
 978 174 785 -27 494 -27 c 4
 126 -27 20 216 20 465 c 4
354 528 m 4
 354 287 402 168 525 168 c 4
 609 168 640 212 640 357 c 4
 640 540 627 743 477 743 c 4
 381 743 354 665 354 528 c 4
EndSplineSet
EndChar

StartChar: oe
Encoding: 339 339 266
Width: 988
VWidth: 0
Flags: HW
HStem: -31 203<889.5 1193.3> -29 182<371.347 481.11> 776 167<310.46 520 865.095 1002.44>
VStem: 0 322<206.26 694.889> 1000 324<532.5 725.614>
LayerCount: 2
Fore
SplineSet
354 528 m 0
 354 287 402 168 525 168 c 0
 609 168 640 212 640 357 c 0
 640 540 627 743 477 743 c 0
 381 743 354 665 354 528 c 0
20 465 m 0
 20 771 292 951 515 951 c 0
 642 951 744 925 820 871 c 1
 897 922 986 950 1075 950 c 0
 1295 950 1411 792 1411 580 c 0
 1411 549 1396 432 1390 401 c 1
 912 397 l 1
 920 265 1017 199 1162 199 c 0
 1238 199 1339 214 1410 255 c 1
 1429 122 l 1
 1337 0 1142 -31 1012 -31 c 0
 913 -31 826 -7 756 41 c 1
 683 -3 594 -27 494 -27 c 0
 126 -27 20 216 20 465 c 0
909 516 m 1
 1079 531 l 1
 1084 546 1085 591 1085 605 c 0
 1085 671 1064 743 1002 743 c 0
 932 743 907 646 909 516 c 1
EndSplineSet
EndChar

StartChar: ogonek
Encoding: 731 731 267
Width: 341
VWidth: 0
Flags: HW
HStem: -385 388<137.346 275>
VStem: 0 249<-255.741 -112>
LayerCount: 2
Fore
SplineSet
0 -206 m 0
 0 -114 48 -66 157 3 c 1
 275 3 l 1
 231 -117 243 -216 341 -300 c 1
 316 -395 l 1
 157 -385 0 -323 0 -206 c 0
EndSplineSet
EndChar

StartChar: one
Encoding: 49 49 271
Width: 861
VWidth: 0
Flags: HW
HStem: -5 129<17 64.9293 798.081 848> 915 167<37 105.372>
VStem: 241 383<191 915>
LayerCount: 2
Fore
SplineSet
0 -5 m 5
 17 124 l 5
 241 191 l 5
 241 915 l 5
 25 915 l 5
 37 1082 l 5
 533 1186 l 5
 624 1186 l 5
 624 178 l 5
 861 132 l 5
 848 -5 l 5
 0 -5 l 5
EndSplineSet
EndChar

StartChar: one.osf
Encoding: 65544 -1 272
Width: 854
VWidth: 0
Flags: HW
HStem: 741 142<23 69.2212>
VStem: 154 276<191 734>
LayerCount: 2
Fore
SplineSet
20 -5 m 1
 37 124 l 1
 241 191 l 1
 241 735 l 1
 45 735 l 1
 57 902 l 1
 513 1006 l 1
 604 1006 l 1
 604 178 l 1
 821 132 l 1
 808 -5 l 1
 20 -5 l 1
EndSplineSet
EndChar

StartChar: onehalf
Encoding: 189 189 273
Width: 858
VWidth: 0
Flags: HW
HStem: 0 54<600 791> 430 56<615.729 737.536> 502 28<0 91.5911 206.595 294> 913 31<9 82.024>
VStem: 115 69<548 913> 536 33<336.787 361.498> 757 75<245.43 417.864>
DStem2: 47 -31 134 -19 0.572686 0.819775<59.6609 1210.09> 621 120 600 54 0.780115 0.625637<-57.6744 136.192>
LayerCount: 2
Fore
SplineSet
0 502 m 1
 0 530 l 1
 115 548 l 1
 115 913 l 1
 8 913 l 1
 9 944 l 1
 172 976 l 1
 184 976 l 1
 184 548 l 1
 295 533 l 1
 294 502 l 1
 0 502 l 1
47 -31 m 1
 740 961 l 1
 818 967 l 1
 134 -19 l 1
 47 -31 l 1
520 39 m 1
 621 120 l 1
 684 174 757 249 757 327 c 0
 757 382 739 430 676 430 c 0
 622 430 587 374 569 330 c 1
 536 342 l 1
 551 411 617 486 700 486 c 0
 786 486 832 433 832 347 c 0
 832 236 704 151 640 87 c 1
 600 54 l 1
 791 54 l 1
 832 127 l 1
 858 120 l 1
 836 0 l 1
 528 0 l 1
 520 39 l 1
EndSplineSet
EndChar

StartChar: onequarter
Encoding: 188 188 274
Width: 862
VWidth: 0
Flags: HW
HStem: -1 21G<693 760> 145 44<555 693 760 855> 502 28<4 95.591 208.188 293> 913 31<11 84.92>
VStem: 119 67<548 913> 693 67<6 141 189 362>
DStem2: 69 -31 154 -19 0.571573 0.820551<58.4303 1208.94> 489 172 555 189 0.630593 0.776114<54.8131 276.103>
LayerCount: 2
Fore
SplineSet
0 502 m 1
 4 530 l 1
 119 548 l 1
 119 913 l 1
 10 913 l 1
 11 944 l 1
 176 976 l 1
 186 976 l 1
 186 548 l 1
 295 533 l 1
 293 502 l 1
 0 502 l 1
69 -31 m 1
 760 961 l 1
 843 967 l 1
 154 -19 l 1
 69 -31 l 1
489 172 m 1
 736 476 l 1
 761 471 l 1
 760 423 760 347 760 274 c 2
 760 189 l 1
 862 189 l 1
 855 141 l 1
 760 141 l 1
 760 6 l 1
 693 -1 l 1
 693 145 l 1
 497 145 l 1
 489 172 l 1
555 189 m 1
 693 189 l 1
 693 362 l 1
 555 189 l 1
EndSplineSet
EndChar

StartChar: onesuperior
Encoding: 185 185 275
Width: 156
VWidth: 0
Flags: HW
HStem: 1007 24<0 54 100 151> 1244 22<7 54>
VStem: 7 93<1244 1266> 54 46<1043 1244>
LayerCount: 2
Fore
SplineSet
0 1007 m 1xd0
 0 1031 l 1
 54 1043 l 1
 54 1244 l 1xd0
 7 1244 l 1
 7 1266 l 1xe0
 93 1289 l 1
 100 1289 l 1
 100 1043 l 1
 156 1033 l 1
 151 1007 l 1
 0 1007 l 1xd0
EndSplineSet
EndChar

StartChar: ordfeminine
Encoding: 170 170 276
Width: 463
VWidth: 0
Flags: HW
HStem: 288 88<16.1414 351.141 354.299 357.141> 575 14<160.271 185.141> 729 49<112.71 216.701>
VStem: 0 104<461.469 548.355> 31 74<671.534 727.707> 185 98<460.948 575 578.258 726.535>
LayerCount: 2
Fore
SplineSet
0 477 m 0xf4
 0 534 -12 540 185 589 c 1
 185 633 l 2
 185 661 199 729 148 729 c 0
 111 729 111 708 105 657 c 1
 86 657 31 659 31 699 c 0xec
 31 742 127 778 181 778 c 0
 251 778 283 732 283 650 c 2
 283 507 l 2
 283 490 267 457 288 461 c 1
 359 521 l 1
 399 527 403 430 450 430 c 1
 484 420 449 349 379 299 c 1
 241 299 192 378 192 451 c 1
 201 468 l 1
 227 523 298 587 405 587 c 1
 449 505 0 426 0 477 c 0xf4
12 288 m 1xe4
 16 376 l 1
 357 376 l 1
 351 288 l 1
 12 288 l 1xe4
104 499 m 0xf4
 104 466 119 447 146 447 c 0
 179 447 174 456 185 474 c 1
 185 575 l 1
 86 562 104 536 104 499 c 0xf4
EndSplineSet
Colour: ffff
EndChar

StartChar: ordmasculine
Encoding: 186 186 277
Width: 342
VWidth: 0
Flags: HW
HStem: 288 72<3 336> 402 46<134.038 205.236> 724 52<123.382 198.542>
VStem: 10 96<453.218 719.854> 229 96<456.358 714.823>
LayerCount: 2
Fore
SplineSet
0 288 m 1
 3 360 l 1
 342 360 l 1
 336 288 l 1
 0 288 l 1
10 581 m 0
 10 705 85 776 171 776 c 0
 270 776 325 700 325 589 c 0
 325 478 256 402 162 402 c 0
 59 402 10 479 10 581 c 0
106 602 m 0
 106 508 131 448 169 448 c 0
 203 448 229 489 229 573 c 0
 229 659 200 724 160 724 c 0
 125 724 106 685 106 602 c 0
EndSplineSet
EndChar

StartChar: oslash
Encoding: 248 248 278
Width: 998
VWidth: 0
Flags: HW
HStem: -27 163<446.905 627.125> 715 187<354.559 576.36>
VStem: 0 329<233.074 645.317> 652 327<224.69 580.014>
LayerCount: 2
Fore
SplineSet
20 465 m 0
 20 771 292 951 515 951 c 0
 817 951 978 801 978 490 c 0
 978 174 785 -27 494 -27 c 0
 126 -27 20 216 20 465 c 0
354 528 m 0
 354 287 402 168 525 168 c 0
 609 168 640 212 640 357 c 0
 640 540 627 743 477 743 c 0
 381 743 354 665 354 528 c 0
0 14 m 1
 164 210 l 1
 256 236 l 1
 638 716 l 1
 678 824 l 1
 793 956 l 1
 998 921 l 1
 839 736 l 1
 736 680 l 5
 332 172 l 5
 303 94 l 1
 208 -20 l 1
 0 14 l 1
EndSplineSet
EndChar

StartChar: p
Encoding: 112 112 281
Width: 1111
VWidth: 0
Flags: HW
HStem: 643 297<600.322 849>
VStem: 777 324<252.35 592.241>
LayerCount: 2
Back
SplineSet
-138 1043 m 5
 -110 1208 l 5
 266 1234 l 5
 323 1180 l 5
 323 878 l 5
 308 777 l 5
 323 771 l 5
 404 861 475 930 587 930 c 4
 804 930 940 752 940 497 c 4
 940 179 665 -23 404 -23 c 4
 316 -23 103 -2 7 51 c 5
 7 943 l 5
 -138 1043 l 5
323 279 m 5
 366.135 240.406 409.488 221.946 448.382 221.946 c 4
 529.411 221.946 591.082 302.068 591.082 447.165 c 4
 591.082 543.945 554.586 635.194 470.821 635.194 c 4
 432.037 635.194 383.12 615.632 323 568 c 5
 323 279 l 5
EndSplineSet
Fore
SplineSet
173 645 m 5
 173 -142 l 5
 18 -212 l 5
 0 -370 l 5
 707 -370 l 5
 729 -210 l 5
 484 -144 l 5
 484 590 l 5
 549 633 602 643 644 643 c 4
 738 643 777 535 777 389 c 4
 777 172 612 136 447 226 c 5
 447 -2 l 5
 480 -20 572 -19 603 -19 c 4
 879 -19 1101 141 1101 490 c 4
 1101 818 934 940 764 940 c 4
 632 940 542 866 494 796 c 5
 479 802 l 5
 502 884 l 5
 464 923 l 5
 48 894 l 5
 21 726 l 5
 173 645 l 5
EndSplineSet
EndChar

StartChar: paragraph
Encoding: 182 182 282
Width: 1568
VWidth: 0
Flags: HW
HStem: -2 138<488 539.61> 388 193<444.607 583> 1088 157<459.937 776>
VStem: 0 352<679.985 995.132> 776 275<216 1088> 1174 217<214 1022>
LayerCount: 2
Fore
SplineSet
20 796 m 0
 20 1065 206 1245 520 1245 c 2
 1051 1245 l 1
 1051 -2 l 1
 507 -2 l 1
 518 136 l 1
 776 216 l 1
 776 1068 l 1
 711 1081 653 1088 603 1088 c 0
 448 1088 366 1021 366 859 c 0
 366 747 446 599 612 599 c 0
 624 599 638 599 651 601 c 1
 633 408 l 1
 251 374 20 528 20 796 c 0
1164 -2 m 1
 1164 1245 l 1
 1605 1245 l 1
 1586 1089 l 1
 1408 1022 l 1
 1408 214 l 1
 1598 148 l 1
 1589 3 l 1
 1164 -2 l 1
EndSplineSet
EndChar

StartChar: paragraph.osf
Encoding: 65545 -1 283
Width: 1470
VWidth: 0
Flags: HW
HStem: -2 138<391 442.968> 352 185<455.37 636> 917 162<398.624 547 547.553 676>
VStem: 0 373<611.207 881.984> 681 277<216 917> 1074 218<214 851>
LayerCount: 2
Fore
SplineSet
50 691 m 0
 49.9999 927 229 1079 559 1079 c 2
 958 1079 l 1
 958 0 l 1
 405 0 l 1
 416 136 l 1
 676 216 l 1
 676 907 l 1
 636.939 914.022 599.636 917.922 565.2 917.922 c 0
 442.714 917.922 366.508 868.579 366.508 734.888 c 0
 366.508 644.68 412.457 551.815 619 537 c 1
 596 352 l 1
 198 352 50 495 50 691 c 0
1034 0 m 1
 1034 1074 l 1
 1460 1074 l 1
 1440 922 l 1
 1278 851 l 1
 1278 209 l 1
 1444 143 l 1
 1434 0 l 1
 1034 0 l 1
EndSplineSet
EndChar

StartChar: parenright
Encoding: 41 41 285
Width: 468
VWidth: 0
Flags: HW
HStem: 1235 20G<109.2 162>
VStem: 159 309<104.927 765.685>
LayerCount: 2
Fore
SplineSet
-6 -278 m 1
 84 -144 159 40 159 454 c 0
 159 877 87 1018 0 1130 c 1
 130 1255 l 1
 194 1201 468 949 468 426 c 0
 468 -88 173 -328 125 -376 c 1
 -6 -278 l 1
EndSplineSet
EndChar

StartChar: partialdiff
Encoding: 8706 8706 286
Width: 944
VWidth: 0
Flags: HW
HStem: -27 180<406.784 606.784> 783 164<377.97 516>
VStem: 0 334<242.626 639.41> 623 321<258.77 669.461>
LayerCount: 2
Fore
SplineSet
334 497 m 1
 344 309 424 153 512 153 c 0
 612 153 616 248 616 453 c 0
 616 523 574 752 531 783 c 1
 518 783 l 1
 405 789 334 740 334 497 c 1
0 451 m 0
 0 745 304 1006 534 917 c 1
 538 923 l 1
 510 1041 444 1182 336 1302 c 1
 592 1302 l 1
 765 1158 944 891 942 531 c 0
 940 231 797 -27 471 -27 c 0
 125 -27 0 207 0 451 c 0
EndSplineSet
EndChar

StartChar: percent
Encoding: 37 37 287
Width: 1595
VWidth: 0
Flags: HW
HStem: -36 123<1192.67 1285.44> 1 21G<341.704 493.695> 474 115<1194.41 1279.21> 578 117<318.776 408.391> 1090 118<326.131 378.342> 1105 103<617 989.736>
VStem: 0 306<730.552 1023.09> 430 292<750.876 1040.61> 868 310<119.512 409.592> 1299 296<132.841 424.143>
DStem2: 637 588 1482 1130 0.708415 0.705796<0.113813 312.102>
LayerCount: 2
Back
SplineSet
-151 892 m 0xad80
 -151 1061 54 1205 224 1205 c 0
 408 1205 576 1067 576 889 c 0
 576 720 387 580 226 580 c 0
 12 580 -151 702 -151 892 c 0xad80
159 882 m 0
 159 765 165 703 226 703 c 0
 270 703 280 764 280 885 c 0
 280 1005 261 1090 224 1090 c 0
 168 1090 159 996 159 882 c 0
EndSplineSet
Fore
SplineSet
0 896 m 4x17c0
 0 1032 177 1208 355 1208 c 4
 368 1208 364 1208 377 1206 c 5
 387 1087 l 21
 384 1087 369 1090 367 1090 c 4x1bc0
 321 1090 306 1015 306 896 c 4
 306 779 305 695 369 695 c 4
 419 695 430 776 430 896 c 4
 430 1038 427 1139 421 1208 c 13
 1180 1207 l 29
 1189 1127 l 29
 617 1105 l 21
 709 1034 722 946 722 896 c 4
 722 720 536 579 369 578 c 4
 149 577 0 696 0 896 c 4x17c0
80 35 m 5
 637 588 l 5
 1180 1207 l 5
 1482 1205 l 5
 1482 1130 l 5
 941 591 l 5
 448 -19 l 5x43c0
 80 35 l 5
868 276 m 4
 868 445 1073 589 1243 589 c 4
 1427 589 1595 451 1595 273 c 4
 1595 104 1406 -36 1245 -36 c 4xa3c0
 1031 -36 868 86 868 276 c 4
1178 266 m 4
 1178 149 1184 87 1245 87 c 4
 1289 87 1299 148 1299 269 c 4
 1299 389 1280 474 1243 474 c 4
 1187 474 1178 380 1178 266 c 4
EndSplineSet
EndChar

StartChar: percent.osf
Encoding: 65546 -1 288
Width: 1223
VWidth: 0
Flags: HW
HStem: -26 100<921 990.448> 471 88<262.303 327.786> 493 77<921.394 986.5> 934 21G<757.909 991> 998 78<268.538 302.156>
VStem: 2 265<620.618 911.827> 320 261<633.81 906.021> 656 262<121.913 414.815> 976 247<115.055 429.079>
LayerCount: 2
Fore
SplineSet
0 40 m 1
 471 486 l 1
 985 1074 l 1
 1220 1073 l 1
 1216 1000 l 1
 729 488 l 1
 292 -10 l 1
 0 40 l 1
2 775 m 0xdf80
 2 966 226 1076 312 1076 c 0
 330 1076 305 1075 302 1073 c 1
 347 990 l 17
 337 988 309 998 295 998 c 0
 251 998 267 910 267 778 c 0
 267 646 243 559 295 559 c 0
 355 559 320 640 320 775 c 0
 320 959 347 976 328 1070 c 9
 985 1074 l 25
 992 934 l 25
 477 978 l 17
 555 904 581 835 581 778 c 0
 581 583 376 471 295 471 c 0
 207 471 2 559 2 775 c 0xdf80
656 275 m 0
 656 466 874 570 960 570 c 0xbf80
 1058 570 1223 469 1223 268 c 0
 1223 77 1041 -26 960 -26 c 0
 872 -26 656 57 656 275 c 0
918 275 m 0
 918 143 908 74 960 74 c 0
 1020 74 976 140 976 275 c 0
 976 410 1014 493 960 493 c 0
 902 493 918 407 918 275 c 0
EndSplineSet
EndChar

StartChar: period
Encoding: 46 46 289
Width: 427
VWidth: 0
Flags: HW
HStem: -26 306<54.5732 373.05>
VStem: 0 427<23.125 227.875>
LayerCount: 2
Fore
SplineSet
0 127 m 4
 0 192 46 280 209 280 c 4
 382 280 427 194 427 130 c 4
 427 45 376 -26 208 -26 c 4
 34 -26 0 54 0 127 c 4
EndSplineSet
EndChar

StartChar: perthousand
Encoding: 8240 8240 291
Width: 2399
VWidth: 0
Flags: HW
HStem: -36 133<1029.17 1142.81 1754.28 1873.02> 1 21G<268.704 420.695> 484 105<1028.12 1139.17 1758.84 1867.23> 578 117<321.513 432.409> 1099 109<326.168 392.74>
VStem: 0 313<763.88 1015.19> 430 309<767.396 1105.96> 705 310<146.293 396.115> 1136 296<144.586 413.715> 1436 307<139.293 389.037> 1864 299<137.336 406.333>
LayerCount: 2
Fore
SplineSet
1671 276 m 0
 1671 445 1876 589 2046 589 c 0
 2230 589 2398 451 2398 273 c 0
 2398 104 2209 -36 2048 -36 c 0xa3c0
 1834 -36 1671 86 1671 276 c 0
1981 266 m 0
 1981 149 1987 87 2048 87 c 0
 2092 87 2102 148 2102 269 c 0
 2102 389 2083 474 2046 474 c 0
 1990 474 1981 380 1981 266 c 0
0 896 m 0x17c0
 0 1032 177 1208 355 1208 c 0
 368 1208 364 1208 377 1206 c 1
 387 1087 l 17
 384 1087 369 1090 367 1090 c 0x1bc0
 321 1090 306 1015 306 896 c 0
 306 779 305 695 369 695 c 0
 419 695 430 776 430 896 c 0
 430 1038 427 1139 421 1208 c 9
 1180 1207 l 25
 1189 1127 l 25
 617 1105 l 17
 709 1034 722 946 722 896 c 0
 722 720 536 579 369 578 c 0
 149 577 0 696 0 896 c 0x17c0
80 35 m 5
 637 588 l 5
 1180 1207 l 5
 1482 1205 l 5
 1482 1130 l 5
 941 591 l 5
 448 -19 l 5x43c0
 80 35 l 5
868 276 m 0
 868 445 1073 589 1243 589 c 0
 1427 589 1595 451 1595 273 c 0
 1595 104 1406 -36 1245 -36 c 0xa3c0
 1031 -36 868 86 868 276 c 0
1178 266 m 0
 1178 149 1184 87 1245 87 c 0
 1289 87 1299 148 1299 269 c 0
 1299 389 1280 474 1243 474 c 0
 1187 474 1178 380 1178 266 c 0
EndSplineSet
EndChar

StartChar: perthousand.osf
Encoding: 65547 -1 292
Width: 1790
VWidth: 0
Flags: HW
HStem: -26 100<921 990.448 1487.62 1557.3> 471 88<262.303 327.786> 493 77<921.394 986.5 1483.19 1548.92> 934 21G<757.909 991> 998 78<268.538 302.156>
VStem: 2 265<620.618 911.827> 320 261<633.81 906.021> 656 262<121.913 414.815> 976 247<115.055 429.079> 1223 257<121.481 417.161> 1539 251<114.067 429.46>
LayerCount: 2
Fore
SplineSet
0 40 m 1
 471 486 l 1
 985 1074 l 1
 1220 1073 l 1
 1216 1001 l 1
 729 488 l 1
 292 -10 l 1
 0 40 l 1
2 775 m 0xdf20
 2 966 226 1076 312 1076 c 0
 330 1076 305 1075 302 1073 c 1
 347 990 l 17
 337 988 309 998 295 998 c 0
 251 998 267 910 267 778 c 0
 267 646 243 559 295 559 c 0
 355 559 320 640 320 775 c 0
 320 959 347 976 328 1070 c 9
 985 1074 l 25
 992 934 l 25
 477 978 l 17
 555 904 581 835 581 778 c 0
 581 583 376 471 295 471 c 0
 207 471 2 559 2 775 c 0xdf20
656 275 m 0
 656 466 874 570 960 570 c 0
 1058 570 1223 469 1223 268 c 0xbfa0
 1223 77 1041 -26 960 -26 c 0
 872 -26 656 57 656 275 c 0
918 275 m 0
 918 143 908 74 960 74 c 0
 1020 74 976 140 976 275 c 0
 976 410 1014 493 960 493 c 0
 902 493 918 407 918 275 c 0
1223 276 m 0
 1223 467 1436 577 1522 577 c 0
 1622 577 1790 469 1790 268 c 0
 1790 77 1609 -29 1528 -29 c 0
 1440 -29 1223 58 1223 276 c 0
1480 276 m 0x9f60
 1480 144 1476 71 1528 71 c 0
 1588 71 1539 141 1539 276 c 0
 1539 411 1576 498 1522 498 c 0
 1464 498 1480 408 1480 276 c 0x9f60
EndSplineSet
EndChar

StartChar: plus
Encoding: 43 43 293
Width: 631
VWidth: 0
Flags: HW
HStem: 376 165<8 222 410 618>
VStem: 222 188<181 376 541 727>
LayerCount: 2
Fore
SplineSet
-10 376 m 1
 -2 541 l 1
 217 541 l 1
 217 786 l 1
 405 774 l 1
 405 541 l 1
 631 541 l 1
 618 376 l 1
 405 376 l 1
 405 142 l 1
 217 146 l 1
 217 376 l 1
 -10 376 l 1
EndSplineSet
EndChar

StartChar: product
Encoding: 8719 8719 295
Width: 1569
VWidth: 0
Flags: HW
HStem: 0 21G<3 727.432 823 1548.3> 1057 187<560 1007>
VStem: 184 376<217 1020> 1007 374<217 1027>
LayerCount: 2
Fore
SplineSet
0 1094 m 1
 23 1244 l 1
 1569 1244 l 1
 1552 1094 l 1
 1381 1027 l 1
 1381 211 l 1
 1563 148 l 1
 1546 0 l 1
 823 0 l 1
 842 138 l 1
 1007 217 l 1
 1007 1060 l 1
 560 1057 l 1
 560 211 l 1
 743 148 l 1
 725 0 l 1
 3 0 l 1
 18 138 l 1
 184 217 l 1
 184 1020 l 1
 0 1094 l 1
EndSplineSet
EndChar

StartChar: q
Encoding: 113 113 296
Width: 973
VWidth: 0
Flags: HW
HStem: -19 249<228.303 532.41> 684 249<362.794 561.851>
VStem: 0 323<295.893 592.795> 604 297<-137 89 269 641.254>
LayerCount: 2
Back
SplineSet
421.879 911.228 m 0
 453.224 911.228 485.04 916.86 517 908 c 1
 521 908 l 1
 511 956 l 1
 511 972 l 1
 338 1073 l 1
 363 1237 l 1
 753 1264 l 1
 813 1209 l 1
 813 375 l 2
 813 272 842.366 248.918 951 214 c 2
 979 205 l 1
 954 35 l 1
 878.861 -0.234375 816 -22.877 717.626 -22.877 c 0
 609.096 -22.877 546.953 26.5205 516 107 c 2
 511 120 l 1
 498 126 l 1
 444 51 376 -19 238 -19 c 0
 21.043 -19 -85.4648 163.195 -85.4648 367.182 c 0
 -85.4648 626.314 86.2354 910.326 421.879 911.228 c 0
391.334 252.902 m 0
 422.926 252.902 461.079 264.23 507 291 c 1
 507 590 l 1
 454.187 654.047 408.401 679.759 370.759 679.759 c 0
 294.333 679.759 251.466 573.771 251.466 467.423 c 0
 251.466 360.346 294.922 252.902 391.334 252.902 c 0
EndSplineSet
Fore
SplineSet
680 897 m 1
 850 936 l 1
 901 931 l 1
 901 -137 l 1
 1060 -204 l 1
 1041 -363 l 1
 434 -363 l 1
 452 -204 l 1
 604 -137 l 1
 604 582 l 1
 576 648 504 684 464 684 c 0
 361 684 323 612 323 480 c 0
 323 317 392 230 468 230 c 0
 537 230 590 245 619 269 c 1
 610 89 l 1
 529 -10 395 -19 321 -19 c 0
 135 -19 0 99 0 386 c 0
 0 642 218 933 505 933 c 0
 561 933 620 922 680 897 c 1
EndSplineSet
EndChar

StartChar: question
Encoding: 63 63 297
Width: 637
VWidth: 0
Flags: HW
HStem: -43 354<98.363 411.596> 976 315<194.607 368.155>
VStem: 0 509<44.4517 227.467> 459 178<603 954.043>
LayerCount: 2
Fore
SplineSet
40 127 m 0
 40 192 86 280 249 280 c 0
 422 280 467 194 467 130 c 0
 467 45 416 -26 248 -26 c 0
 74 -26 40 54 40 127 c 0
186 1291 m 0
 399 1291 616 1025 616 806 c 0
 616 703 568 610 448 561 c 0
 386 536 328 510 328 439 c 0
 328 429 329 418 332 406 c 1
 171 374 l 1
 104 474 77 584 77 635 c 0
 77 802 404 773 404 913 c 0
 404 962 360 979 305 979 c 0
 225 979 122 943 97 916 c 1
 32 931 -45 1037 -45 1133 c 0
 -45 1216 13 1291 186 1291 c 0
EndSplineSet
EndChar

StartChar: quotereversed
Encoding: 8219 8219 301
Width: 408
VWidth: 0
Flags: HW
HStem: 699 121<269.316 368.631>
VStem: 0 213<885.578 1173>
LayerCount: 2
Fore
SplineSet
0 1086 m 0
 0 1260 179 1300 236 1300 c 0
 362 1300 464 1143 375 980 c 1
 274 902 213 947 213 927 c 0
 213 897 295 809 403 820 c 1
 364 699 l 1
 -7 775 0 995 0 1086 c 0
EndSplineSet
EndChar

StartChar: quotesingle
Encoding: 39 39 303
Width: 331
VWidth: 0
Flags: HW
HStem: 894 408<88.7674 188.492>
VStem: 0 331
LayerCount: 2
Fore
SplineSet
17 1302 m 1
 328 1278 l 1
 267 920 l 1
 92 894 l 1
 17 1302 l 1
EndSplineSet
EndChar

StartChar: r
Encoding: 114 114 304
Width: 841
VWidth: 0
Flags: HW
HStem: 586 344<569.302 794.259>
VStem: 168 310<251 537.393>
LayerCount: 2
Back
SplineSet
-105 0 m 1
 -88 157 l 1
 54 229 l 1
 54 640 l 1
 -88 721 l 5
 -61 889 l 5
 342 918 l 5
 380 879 l 5
 357 777 l 1
 372 771 l 1
 464 867 549 928.617 661.449 928.617 c 0
 807 928.617 907 849 907 641 c 2
 907 229 l 1
 1055 165 l 1
 1032 0 l 1
 596 0 l 1
 596 157 l 1
 596 229 l 1
 596 429 l 2
 596 557.365 563 602.028 501.271 602.028 c 0
 455 602.028 413 588 372 552 c 1
 372 229 l 1
 495 166 l 1
 467 0 l 1
 -105 0 l 1
EndSplineSet
Fore
SplineSet
28 721 m 17
 55 889 l 1
 420 918 l 1
 458 879 l 1
 440 738 l 1
 459 728 l 1
 510 879 613 930 718 930 c 0
 807 930 871 860 871 770 c 0
 871 686 817 609 766 546 c 1
 706 575 660 586 624 586 c 0
 527 586 502 505 478 460 c 1
 478 251 l 1
 717 188 l 1
 703 2 l 1
 0 2 l 1
 22 161 l 1
 168 229 l 1
 168 643 l 9
 28 721 l 17
EndSplineSet
EndChar

StartChar: radical
Encoding: 8730 8730 306
Width: 918
VWidth: 0
Flags: HW
DStem2: 343 225 420 -107 0.33324 0.942842<0 1134.47>
LayerCount: 2
Fore
SplineSet
-140 376 m 1
 -130 517 l 1
 306 529 l 1
 343 225 l 1
 720 1295 l 1
 918 1302 l 1
 420 -107 l 1
 162 -130 l 1
 20 327 l 1
 -140 376 l 1
EndSplineSet
EndChar

StartChar: registered
Encoding: 174 174 309
Width: 483
VWidth: 0
Flags: HW
HStem: 838 31<148.502 300.727> 951 17<114 143> 1083 128<192 251> 1083 103<192 237.048> 1186 16<114 150> 1272 36<145.154 306.846>
VStem: 0 44<966.88 1172.58> 263 49<1100.09 1177.35> 415 35<979.689 1155.67>
LayerCount: 2
Fore
SplineSet
0 1067 m 0xc780
 0 1211 93 1308 225 1308 c 0
 362 1308 450 1211 450 1070 c 0
 450 929 358 838 217 838 c 0
 85 838 0 929 0 1067 c 0xc780
44 1070 m 0
 44 950 115 869 222 869 c 0
 334 869 415 947 415 1064 c 0
 415 1193 337 1272 225 1272 c 0
 114 1272 44 1190 44 1070 c 0
110 951 m 1
 114 968 l 1
 150 979 l 1
 150 1180 l 1
 114 1186 l 1
 114 1202 l 1xcf80
 147 1205 181 1211 204 1211 c 0xe780
 279 1211 312 1187 312 1148 c 0
 312 1125 294 1097 257 1079 c 1
 297 1022 l 1
 313 995 324 989 339 976 c 1
 370 1004 l 1
 388 1010 390 959 408 959 c 1
 440 949 472 900 483 839 c 1
 391 839 375 800 322 892 c 1
 286 1059 l 1
 192 1217 l 1
 124 997 l 1
 232 1004 l 1
 110 951 l 1
192 1083 m 1xe780
 228 1083 l 2xe780
 251 1083 263 1105 263 1136 c 0
 263 1167 241 1184 210 1184 c 0
 204 1184 192 1186 192 1186 c 1xd780
 192 1083 l 1xe780
EndSplineSet
Colour: ffff
EndChar

StartChar: ring
Encoding: 730 730 310
Width: 514
VWidth: 0
Flags: HW
HStem: 1359 63<108.432 220.138> 1631 67<99.134 216.856>
VStem: 0 81<1440.17 1620.96> 236 83<1428.87 1619.6>
LayerCount: 2
Fore
SplineSet
0 1525 m 0
 0 1619 75 1698 234 1698 c 0
 396 1698 469 1638 469 1534 c 0
 469 1446 402 1359 220 1359 c 0
 66 1359 0 1423 0 1525 c 0
151 1536 m 0
 151 1492 189 1469 229 1469 c 0
 266 1469 306 1488 306 1526 c 0
 306 1563 265 1585 223 1585 c 0
 188 1585 151 1570 151 1536 c 0
EndSplineSet
EndChar

StartChar: s
Encoding: 115 115 311
Width: 778
VWidth: 0
Flags: HW
HStem: -36 160<277.562 480.43> 799 149<310.509 503.601>
VStem: 34 269<485 778.945> 484 295<130.452 424>
LayerCount: 2
Back
SplineSet
-70 141 m 4
 -70 208 -21 265 62 271 c 5
 105 130 175 64 251 64 c 4
 321 64 383 91 383 165 c 4
 383 324 -46 354 -46 624 c 4
 -46 740 50 900 252 900 c 4
 383 900 497 845 497 734 c 4
 497 651 444 595 357 589 c 5
 350 632 l 6
 322 780 260 816 201 816 c 4
 131 816 89 760 89 696 c 4
 89 509 528 487 528 220 c 4
 528 72 374 -34 220 -34 c 4
 42 -34 -70 51 -70 141 c 4
EndSplineSet
Fore
SplineSet
34 634 m 4
 34 746 126 948 431 948 c 4
 631 948 764 885 764 773 c 4
 764 684 671 621 573 611 c 5
 540 697 l 6
 507 783 437 799 388 799 c 4
 334 799 303 770 303 732 c 4
 303 612 779 576 779 272 c 4
 779 71 594 -36 348 -36 c 4
 183 -36 0 42 0 167 c 4
 0 264 72 318 192 328 c 5
 230 194 298 124 375 124 c 4
 453 124 484 137 484 186 c 4
 484 300 34 336 34 634 c 4
EndSplineSet
EndChar

StartChar: section
Encoding: 167 167 316
Width: 1004
VWidth: 0
Flags: HW
HStem: -393 180<341.304 548.043> -20 20G<56.8733 181.699> 1127 139<405.401 593.59>
VStem: 63 318<704 1020.49> 626 328<-103.062 252.5>
LayerCount: 2
Fore
SplineSet
48 614 m 1
 438 442 l 2
 783 290 954 246 954 10 c 0
 954 -303 616 -393 429 -393 c 0
 285 -393 98 -312 34 -231 c 1
 55 80 l 1
 240 46 l 1
 288 -157 l 1
 309 -175 400 -210 482 -210 c 0
 558 -210 626 -180 626 -81 c 0
 626 157 -108 70 48 614 c 1
43 909 m 0
 43 1192 244 1266 513 1266 c 0
 656 1266 796 1234 857 1187 c 1
 857 1163 844 899 844 899 c 1
 673 922 l 1
 624 1068 l 17
 592 1090 528 1117 471 1117 c 0
 412 1117 361 1089 361 995 c 0
 361 756 1152 872 935 320 c 1
 416 545 l 2
 187 644 43 726 43 909 c 0
EndSplineSet
EndChar

StartChar: seven
Encoding: 55 55 318
Width: 899
VWidth: 0
Flags: HW
HStem: 888 296<233 600>
LayerCount: 2
Fore
SplineSet
0 682 m 1
 13 1184 l 1
 899 1184 l 1
 899 1057 l 1
 447 -33 l 1
 51 6 l 1
 600 888 l 1
 233 888 l 1
 132 655 l 1
 0 682 l 1
EndSplineSet
EndChar

StartChar: seven.osf
Encoding: 65548 -1 319
Width: 812
VWidth: 0
Flags: HW
HStem: 710 283<282 573>
LayerCount: 2
Fore
SplineSet
593 710 m 1
 202 710 l 1
 139 563 l 1
 2 587 l 1
 75 993 l 1
 834 993 l 1
 832 817 l 1
 558 423 366 69 331 -294 c 1
 174 -330 42.9346 -255 42.9346 -126.658 c 0
 42.9346 29 450 504 593 710 c 1
EndSplineSet
EndChar

StartChar: six
Encoding: 54 54 320
Width: 943
VWidth: 0
Flags: HW
HStem: -19 141<409.361 533.757> 554 110<387.402 456.632> 1125 90<739.097 759.672>
VStem: 0 372<222.25 511.191> 575 368<210.299 539.209>
LayerCount: 2
Fore
SplineSet
0 420 m 4
 0 877 463 1144 749 1215 c 5
 816 1125 l 5
 637 1029 425 858 385 664 c 5
 404 664 l 5
 461 726 539 756 618 756 c 4
 799 756 943 611 943 403 c 4
 943 103 684 -19 468 -19 c 4
 164 -19 0 185 0 420 c 4
372 366 m 4
 372 256 389 122 473 122 c 4
 520 122 575 188 575 330 c 4
 575 387 594 554 488 554 c 4
 434 554 402 527 378 500 c 5
 376 474 372 410 372 366 c 4
EndSplineSet
EndChar

StartChar: six.osf
Encoding: 65549 -1 321
Width: 829
VWidth: 0
Flags: HWO
HStem: -19 130<340.104 455.48>
VStem: 0 335<204.797 577.486> 506 323<262.464 595.3>
LayerCount: 2
Back
SplineSet
0 420 m 4
 0 877 403 1204 689 1275 c 5
 756 1185 l 5
 577 1089 425 858 385 664 c 5
 404 664 l 5
 461 726 539 756 618 756 c 4
 799 756 943 611 943 403 c 4
 943 103 684 -19 468 -19 c 4
 164 -19 0 185 0 420 c 4
372 366 m 4
 372 256 389 122 473 122 c 4
 520 122 575 188 575 330 c 4
 575 387 594 554 488 554 c 4
 434 554 402 527 378 500 c 5
 376 474 372 410 372 366 c 4
EndSplineSet
Fore
SplineSet
0 420 m 0
 0 877 403 1204 689 1275 c 1
 756 1185 l 1
 577 1089 425 858 385 664 c 1
 404 664 l 1
 461 726 539 756 618 756 c 0
 799 756 943 611 943 403 c 0
 943 103 684 -19 468 -19 c 0
 164 -19 0 185 0 420 c 0
372 366 m 0
 372 256 389 122 473 122 c 0
 520 122 575 188 575 330 c 0
 575 387 594 554 488 554 c 0
 434 554 402 527 378 500 c 1
 376 474 372 410 372 366 c 0
EndSplineSet
EndChar

StartChar: slash
Encoding: 47 47 322
Width: 692
VWidth: 0
Flags: HW
HStem: 1224 20G<462 686.182>
DStem2: 0 -372 226 -358 0.279309 0.960201<76.5667 1661.52>
LayerCount: 2
Fore
SplineSet
0 -372 m 1
 462 1224 l 1
 692 1244 l 1
 226 -358 l 1
 0 -372 l 1
EndSplineSet
EndChar

StartChar: softhyphen
Encoding: 173 173 323
Width: 412
VWidth: 0
Flags: HW
HStem: 348 280
VStem: 0 412
DStem2: 5 572 0 348 0.990667 0.136308<0 374.494>
LayerCount: 2
Fore
SplineSet
0 348 m 1
 5 572 l 1
 512 628 l 1
 506 405 l 1
 0 348 l 1
EndSplineSet
EndChar

StartChar: sterling
Encoding: 163 163 325
Width: 1208
VWidth: 0
Flags: HW
HStem: 0 181<515 823> 487 184<53 223> 520 181<591.65 789> 1230 20G<680 832>
VStem: 226 356<686 910.698>
LayerCount: 2
Fore
SplineSet
0 0 m 1xb8
 11 138 l 1
 175 217 l 1
 212 309 219 312 222 460 c 2
 223 501 l 1
 37 487 l 1
 53 671 l 1xd8
 226 679 l 1
 228 746 l 2
 238 1090 558 1255 868 1255 c 0
 967 1255 1065 1238 1152 1205 c 1
 1111 779 l 1
 951 801 l 1
 871 1014 l 17
 824 1034 762 1042 722 1042 c 0
 626 1042 582 971 582 706 c 2
 582 686 l 1
 865 701 l 1
 854 520 l 1
 578 507 l 1
 575 483 l 2
 566 408 578 308 515 231 c 1
 833 181 l 1
 1032 441 l 1
 1208 407 l 1
 1154 0 l 1
 0 0 l 1xb8
EndSplineSet
EndChar

StartChar: sterling.osf
Encoding: 65550 -1 326
Width: 1146
VWidth: 0
Flags: HW
HStem: 0 178<483 767> 0 138<6 49.79> 454 155<585.02 795> 917 150<572.188 784.426>
VStem: 218 331<437 440 595 893.183>
LayerCount: 2
Fore
SplineSet
0 0 m 1x78
 6 138 l 1x78
 174 193 l 1
 204 257 203.752 300.021 212 399 c 2
 213 411 l 1
 37 402 l 1
 48 557 l 1
 218 567 l 1
 220 654 l 2
 227 940 510 1067 736 1067 c 0
 1002 1067 1102.99 960.976 1102.99 858.56 c 0
 1102.99 748.904 978 670 842 675 c 1
 842 828 773.056 929 693.556 928.201 c 0
 574 927 549 841 549 633 c 2
 549 582 l 1
 805 589 l 1
 795 434 l 1
 546 424 l 1
 546 410 l 2
 546 299 528 245 483 188 c 1
 817 158 l 1xb8
 957 404 l 1
 1120 364 l 1
 1104 0 l 1
 0 0 l 1x78
EndSplineSet
EndChar

StartChar: summation
Encoding: 8721 8721 327
Width: 1013
VWidth: 0
Flags: HW
HStem: 0 376<462 700> 923 21G<852 983.93> 1072 172<463 731>
LayerCount: 2
Fore
SplineSet
0 1151 m 1
 15 1244 l 1
 1103 1244 l 1
 1072 863 l 1
 903 889 l 1
 821 1072 l 1
 463 1072 l 1
 801 725 l 1
 805 650 l 1
 442 316 l 1
 780 276 l 1
 934 537 l 1
 1099 523 l 1
 1069 0 l 1
 23 0 l 1
 23 138 l 1
 468 606 l 1
 468 624 l 1
 0 1151 l 1
EndSplineSet
EndChar

StartChar: t
Encoding: 116 116 328
Width: 762
VWidth: 0
Flags: HW
HStem: -23 243<305 666> 700 156<456 728> 703 109<0 73.1463>
VStem: 127 323<262.937 700>
LayerCount: 2
Fore
SplineSet
0 703 m 1xb0
 0 812 l 1xb0
 93 854 244 990 313 1077 c 1
 456 1077 l 1
 456 856 l 1
 740 856 l 1
 728 700 l 1
 452 700 l 1xd0
 450 354 l 2
 450 272 498 220 630 220 c 0
 702 220 732 249 732 249 c 1
 762 133 l 1
 705 57 587 -23 418 -23 c 0
 192 -23 125 60 127 295 c 2
 130 703 l 1
 0 703 l 1xb0
EndSplineSet
EndChar

StartChar: tcaron
Encoding: 357 357 330
Width: 1178
VWidth: 0
Flags: HW
HStem: -23 243<368 633.672> 777 121<814.55 914.546> 830 156<456 728> 1040 333<833.261 963.475>
VStem: 127 323<265.494 830>
LayerCount: 2
Fore
SplineSet
0 833 m 1xb8
 0 942 l 1
 13 1083 232 1217 383 1167 c 1
 456 1167 l 1
 456 986 l 1
 740 986 l 1
 728 830 l 1
 455 830 l 1
 450 359 l 1
 450 354 l 2
 450 272 498 220 630 220 c 0
 702 220 732 239 732 239 c 1
 762 143 l 1
 697 40 597 -23 428 -23 c 0
 308 -23 127 -30 127 295 c 2
 127 324 l 1
 130 833 l 1
 0 833 l 1xb8
759 1195 m 0
 759 1325 906 1373 943 1373 c 0
 1000 1373 1178 1338 1178 1164 c 0
 1178 1073 1191 853 820 777 c 1
 774 898 l 1xd8
 882 887 965 972 965 1002 c 0
 965 996 931 1040 837 1040 c 0
 826 1040 815 1033 804 1039 c 1
 785 1086 759 1138 759 1195 c 0
EndSplineSet
EndChar

StartChar: thorn
Encoding: 254 254 333
Width: 1165
VWidth: 0
Flags: HW
HStem: 2 195<572.527 677.199> 666 225<564.257 793> 1242 20G<119 436.132>
VStem: 171 295<-124 674.912 802.222 972> 675 361<396 652.604>
LayerCount: 2
Back
SplineSet
23 1043 m 1
 51 1208 l 1
 427 1234 l 1
 484 1180 l 1
 484 878 l 5
 469 777 l 5
 484 771 l 5
 565 861 636 930 748 930 c 0
 965 930 1101 752 1101 497 c 0
 1101 179 833 -23 545 -23 c 0
 457 -23 264 -2 168 51 c 1
 168 943 l 1
 23 1043 l 1
484 259 m 1
 527.135 220.406 570.488 201.946 609.382 201.946 c 0
 690.411 201.946 752.082 302.068 752.082 447.165 c 0
 752.082 543.945 715.586 645.194 631.821 645.194 c 0
 593.037 645.194 544.12 625.632 484 578 c 5
 484 259 l 1
EndSplineSet
Fore
SplineSet
469 776 m 1
 484 770 l 1
 532 840 632 940 764 940 c 0
 934 940 1101 818 1101 490 c 0
 1101 141 879 -19 603 -19 c 0
 572 -19 480 -20 447 -2 c 1
 447 226 l 1
 612 136 777 172 777 389 c 0
 777 535 738 643 644 643 c 0
 602 643 549 623 484 580 c 1
 484 -144 l 1
 729 -210 l 1
 707 -370 l 1
 0 -370 l 1
 18 -212 l 1
 173 -142 l 1
 174 972 l 1
 0 1073 l 1
 25 1237 l 1
 424 1264 l 1
 484 1209 l 1
 484 916 l 1
 469 776 l 1
EndSplineSet
EndChar

StartChar: three
Encoding: 51 51 334
Width: 964
VWidth: 0
Flags: HW
HStem: -19 163<299 480.204> 529 100<240 364.284> 1076 148<289 433.173>
VStem: 65 166<740 814.769> 91 180<369.749 435> 548 416<238.526 452.307>
LayerCount: 2
Fore
SplineSet
0 1118 m 1xf4
 52 1170 271 1224 420 1224 c 0
 702 1224 922 1169 922 965 c 0
 922 803 692 713 572 673 c 1
 572 655 l 1
 821 664 959 555 964 384 c 0
 970 167 698 -19 301 -19 c 0
 192 -19 101 -10 16 9 c 1
 91 455 l 1
 271 435 l 1xec
 299 145 l 1
 306 144 315 144 324 144 c 0
 405 144 548 176 548 317 c 0
 548 456 456 558 240 529 c 1
 211 629 l 1
 459 678 534 771 534 877 c 0
 534 1024 369 1076 297 1076 c 0
 294 1076 292 1076 289 1076 c 1
 231 729 l 1
 65 740 l 1
 0 1118 l 1xf4
EndSplineSet
EndChar

StartChar: three.osf
Encoding: 65551 -1 335
Width: 775
VWidth: 0
Flags: HW
HStem: -308 138<186.879 370.09> 294 135<254.744 354.656> 785 255<339.429 436.744>
VStem: 419 342<56 226.248> 449 327<676.755 879>
LayerCount: 2
Fore
SplineSet
8 -252 m 0xf0
 8 -200 83 -112 233 -94 c 1
 194 73 172 -170 199 -170 c 0
 457 -170 419 -32 419 56 c 0xf0
 419 27 430 297 255 294 c 1
 229 429 l 1
 398 451 449 523 449 730 c 0
 449 765 430 785 437 785 c 0
 323 785 297 790 257 746 c 1
 134 791 l 1
 115 846 321 1040 499 1040 c 0
 669 1040 776 948 776 810 c 0xe8
 776 658 586 507 545 485 c 1
 545 461 l 1
 710 427 761 245 761 116 c 0
 761 -74 546 -308 207 -308 c 0
 -60 -308 8 -224 8 -252 c 0xf0
EndSplineSet
EndChar

StartChar: threequarters
Encoding: 190 190 336
Width: 854
VWidth: 0
Flags: HW
HStem: -1 21G<685 752> 145 44<547 685 752 847> 489 34<79.0942 185.604> 720 26<91 113.952> 930 50<77.4146 184.019>
VStem: 20 31<874.913 898.774> 198 75<795.879 923.18> 219 68<550.771 683.535> 685 67<6 141 189 362>
DStem2: 62 -31 146 -19 0.571016 0.820939<57.8166 1208.37> 482 172 547 189 0.629051 0.777364<54.1035 275.397>
LayerCount: 2
Fore
SplineSet
0 541 m 0xfd80
 0 559 15 581 48 584 c 1
 49 565 84 523 121 523 c 0
 203 523 219 573 219 616 c 0xfd80
 219 662 167 720 94 720 c 2
 91 720 l 1
 83 746 l 1
 98 747 198 789 198 862 c 0
 198 893 181 930 129 930 c 0
 86 930 64 907 51 869 c 1
 20 880 l 1
 26 923 86 980 155 980 c 0
 216 980 273 941 273 883 c 0xfe80
 273 820 230 779 180 761 c 1
 180 759 l 1
 249 748 287 692 287 640 c 0
 287 554 209 489 104 489 c 0
 33 489 0 514 0 541 c 0xfd80
62 -31 m 1
 752 961 l 1
 831 967 l 1
 146 -19 l 1
 62 -31 l 1
482 172 m 1
 728 476 l 1
 754 471 l 1
 753 423 752 347 752 274 c 2
 752 189 l 1
 854 189 l 1
 847 141 l 1
 752 141 l 1
 752 6 l 1
 685 -1 l 1
 685 145 l 1
 489 145 l 1
 482 172 l 1
547 189 m 1
 685 189 l 1
 685 362 l 1
 547 189 l 1
EndSplineSet
EndChar

StartChar: threesuperior
Encoding: 179 179 337
Width: 194
VWidth: 0
Flags: HW
HStem: 938 29<50.53 119.677> 1268 33<56.413 113.892>
VStem: 0 38<975.187 1019.86 1203.95 1251.82> 126 50<1161.55 1261.63> 140 54<975.833 1085.25>
LayerCount: 2
Fore
SplineSet
0 995 m 0xe8
 0 1018 27 1029 38 1027 c 1
 39 996 46 967 84 967 c 0
 122 967 140 1000 140 1031 c 0xe8
 140 1062 109 1103 72 1103 c 0
 61 1103 49 1103 38 1103 c 1
 40 1109 30 1119 30 1130 c 2
 30 1127 l 1
 41 1130 126 1146 126 1217 c 0
 126 1244 107 1268 80 1268 c 0
 62 1268 44 1245 44 1197 c 1
 17 1195 1 1210 1 1228 c 0
 1 1274 68 1301 101 1301 c 0
 141 1301 176 1269 176 1231 c 0xf0
 176 1191 150 1149 117 1131 c 1
 117 1130 l 1
 165 1117 194 1076 194 1039 c 0
 194 991 150 938 89 938 c 0
 16 938 0 972 0 995 c 0xe8
EndSplineSet
EndChar

StartChar: tilde
Encoding: 732 732 338
Width: 667
VWidth: 0
Flags: HW
VStem: 0 462
LayerCount: 2
Fore
SplineSet
8 1327 m 1
 -7 1446 48 1613 231 1573 c 2
 458 1524 l 2
 504 1514 528 1577 528 1577 c 1
 643 1566 l 1
 642 1401 557 1297 395 1335 c 2
 186 1384 l 2
 131 1397 126 1321 126 1321 c 1
 8 1327 l 1
EndSplineSet
EndChar

StartChar: trademark
Encoding: 8482 8482 339
Width: 780
VWidth: 0
Flags: HW
HStem: 992 21<68 113 176 222 311 357 399 444 622 667 731 780> 1228 91<3 37.044 255 287.246> 1289 30<46 113 176 245 330 374 714 761>
VStem: 3 32<1228 1289> 113 63<1026 1289> 255 31<1228 1289>
DStem2: 357 1026 399 1022 0.066519 0.997785<0 222.107> 545 1070 554 1001 0.366332 0.930484<0 212.07> 714 1281 654 1255 0.0654961 -0.997853<22.0144 251.374>
LayerCount: 2
Fore
SplineSet
0 1319 m 1xbc
 296 1319 l 1xbc
 286 1225 l 1
 255 1228 l 1xdc
 245 1289 l 1
 176 1289 l 1
 176 1022 l 1
 226 1016 l 1
 222 992 l 1
 68 992 l 1
 66 1013 l 1
 113 1026 l 1
 113 1289 l 1
 46 1289 l 1xbc
 35 1225 l 1
 3 1228 l 1xdc
 0 1319 l 1xbc
309 992 m 1
 311 1013 l 1
 357 1026 l 1
 374 1281 l 1
 327 1291 l 1
 330 1319 l 1
 451 1319 l 1
 474 1266 l 1
 545 1070 l 1
 622 1272 l 1
 642 1319 l 1
 764 1319 l 1
 761 1291 l 1
 714 1281 l 1
 731 1022 l 1
 780 1016 l 1
 780 992 l 1
 622 992 l 1
 622 1013 l 1
 667 1026 l 1
 654 1255 l 1
 554 1001 l 1
 503 996 l 1
 411 1245 l 1
 399 1022 l 1
 444 1016 l 1
 444 992 l 1
 309 992 l 1
EndSplineSet
EndChar

StartChar: two
Encoding: 50 50 340
Width: 951
VWidth: 0
Flags: HW
HStem: 0 249<401 678>
VStem: 51 158<634 685.536> 483 433<689.267 924.642>
LayerCount: 2
Back
SplineSet
693.759 0 m 1
 76.7256 0 l 1
 71.8799 82.3789 l 1
 262.481 247.944 l 2
 313.362 291.557 313.362 291.557 345.668 321.438 c 128
 367.205 341.36 392.106 366.666 420.374 397.356 c 128
 448.642 428.047 470.852 456.045 487.004 481.351 c 128
 503.156 506.656 517.155 535.327 529.001 567.363 c 128
 540.847 599.4 546.769 631.302 546.769 663.068 c 0
 546.769 799.29 491.581 867.131 381.204 866.593 c 0
 292.902 866.593 221.83 798.213 167.988 661.453 c 1
 101.762 685.683 l 1
 109.838 720.142 123.703 754.466 143.355 788.655 c 128
 163.008 822.846 186.698 853.939 214.427 881.938 c 128
 242.156 909.936 274.865 932.684 312.555 950.183 c 128
 350.244 967.682 389.28 976.431 429.662 976.431 c 0
 516.348 976.431 582.036 952.471 626.725 904.552 c 128
 671.414 856.632 693.759 787.982 693.759 698.604 c 0
 693.759 670.606 689.721 642.608 681.645 614.61 c 128
 673.567 586.612 663.606 560.768 651.762 537.077 c 128
 639.916 513.387 624.302 488.619 604.919 462.775 c 128
 585.535 436.931 566.96 414.451 549.191 395.338 c 128
 531.424 376.224 509.887 354.821 484.581 331.131 c 128
 459.275 307.439 437.873 288.326 420.374 273.788 c 128
 394.126 251.982 394.126 251.982 355.359 219.677 c 128
 316.593 187.371 316.593 187.371 298.825 172.026 c 2
 225.33 108.223 l 1
 605.727 108.223 l 1
 683.26 251.982 l 1
 738.986 243.906 l 1
 693.759 0 l 1
EndSplineSet
Fore
SplineSet
0 1006 m 1
 113 1134 342 1212 525 1212 c 0
 799 1212 916 1042 916 889 c 0
 916 581 640 394 471 291 c 2
 401 249 l 1
 678 249 l 1
 790 451 l 1
 951 435 l 1
 900 0 l 1
 19 0 l 1
 13 213 l 1
 231 371 l 2
 321 436 483 585 483 736 c 0
 483 969 368 994 278 985 c 1
 209 607 l 1
 51 634 l 1
 0 1006 l 1
EndSplineSet
Colour: ffff00
EndChar

StartChar: two.osf
Encoding: 65552 -1 341
Width: 778
VWidth: 0
Flags: HW
HStem: 0 269<357.451 568.451> 809 228<226.863 338.267>
VStem: 373 371<611.766 773.748>
LayerCount: 2
Fore
SplineSet
1 775 m 1
 -15 744 100 1026 414 1037 c 0
 659 1047 744 842 744 727 c 0
 744 580 618 395 446 309 c 1
 357 269 l 1
 568 269 l 1
 643 325 l 1
 778 312 l 1
 693 0 l 1
 27 0 l 1
 21 213 l 1
 302 388 l 1
 528 541 373 716 373 579 c 0
 373 785 309 809 249 809 c 0
 225 809 146 790 113 726 c 1
 1 775 l 1
EndSplineSet
EndChar

StartChar: twosuperior
Encoding: 178 178 342
Width: 185
VWidth: 0
Flags: HW
HStem: 1010 42<49 175> 1268 33<59.832 113.431>
VStem: 6 43<1206.61 1264.55> 123 51<1145.98 1264.59>
LayerCount: 2
Fore
SplineSet
0 1010 m 1
 1 1039 l 1
 83 1124 l 1
 106 1147 123 1180 123 1211 c 0
 123 1244 113 1268 82 1268 c 0
 55 1268 49 1226 49 1195 c 1
 18 1198 6 1207 6 1230 c 0
 6 1261 64 1301 101 1301 c 0
 144 1301 174 1268 174 1222 c 0
 174 1168 148 1136 91 1085 c 1
 49 1052 l 1
 185 1052 l 1
 175 1010 l 1
 0 1010 l 1
EndSplineSet
EndChar

StartChar: u
Encoding: 117 117 343
Width: 1128
VWidth: 0
Flags: HW
HStem: -31 327<288.275 545.174> 903 20G<67.0909 419.132 753.524 944>
VStem: 125 329<305.007 613> 661 316<315.332 604>
LayerCount: 2
Back
SplineSet
992 898.617 m 1
 975 741.617 l 1
 833 669.617 l 1
 833 258.617 l 1
 975 177.617 l 1
 948 9.61719 l 1
 545 -19.3828 l 1
 507 19.6172 l 1
 530 121.617 l 1
 515 127.617 l 1
 423 31.6172 338 -30 225.551 -30 c 0
 80 -30 -20 49.6172 -20 257.617 c 2
 -20 669.617 l 1
 -168 733.617 l 1
 -145 898.617 l 1
 291 898.617 l 1
 291 741.617 l 1
 291 669.617 l 1
 291 469.617 l 2
 291 341.252 324 296.589 385.729 296.589 c 0
 432 296.589 474 310.617 515 346.617 c 1
 515 669.617 l 1
 392 732.617 l 1
 420 898.617 l 1
 992 898.617 l 1
EndSplineSet
Fore
SplineSet
393 -31 m 4
 184 -31 125 59 125 267 c 6
 125 613 l 5
 0 718 l 5
 34 901 l 5
 398 923 l 5
 454 870 l 5
 454 469 l 5
 454 341 475 296 537 296 c 4
 583 296 620 310 661 346 c 5
 661 604 l 5
 532 680 l 5
 566 889 l 5
 924 931 l 5
 977 878 l 5
 977 373 l 6
 977 270 1006 237 1115 202 c 6
 1143 193 l 5
 1118 23 l 5
 1043 -12 952 -35 872 -35 c 4
 763 -35 675 7 675 115 c 6
 675 128 l 5
 662 134 l 5
 602 27 488 -31 393 -31 c 4
EndSplineSet
EndChar

StartChar: underscore
Encoding: 95 95 355
Width: 843
VWidth: 0
Flags: HW
HStem: -130 182<16 827>
LayerCount: 2
Fore
SplineSet
0 -130 m 1
 16 52 l 1
 843 52 l 1
 827 -130 l 1
 0 -130 l 1
EndSplineSet
EndChar

StartChar: uni1E9E
Encoding: 7838 7838 356
Width: 1559
VWidth: 0
Flags: HW
HStem: -23 176<821.49 1008.45> 0 21G<0 532> 1043 167<600.343 867.109>
VStem: 167 365<212 945.876> 1014 327<145.872 571.5>
LayerCount: 2
Fore
SplineSet
798 1050 m 5
 717 1035 605 946 605 797 c 4
 605 408 1202 447 1202 251 c 4
 1202 198 1155 181 1076 181 c 4
 991 181 892 212 850 272 c 5
 808 459 l 5
 631 488 l 5
 597 126 l 5xe8
 651 42 819 -23 1049 -23 c 4
 1236 -23 1596 38 1596 351 c 4
 1596 774 979 771 979 940 c 4
 979 992 1007 1030 1053 1030 c 4
 1132 1030 1263 946 1383 760 c 5
 1502 801 1549 887 1549 998 c 4
 1549 1188 1228 1268 938 1268 c 4
 578 1268 171 1105 171 728 c 6
 171 212 l 5
 17 136 l 5
 4 0 l 5x78
 531 0 l 5
 531 751 l 6
 531 927 580 1063 744 1063 c 4
 758 1063 772 1062 788 1060 c 5
 798 1050 l 5
EndSplineSet
EndChar

StartChar: uni1E9E.alt
Encoding: 65553 -1 357
Width: 1588
VWidth: 0
Flags: HW
HStem: -25 181<888.35 1053.79> 0 21G<0 546> 1111 174<631.233 825>
VStem: 177 369<220 939.648> 1072 336<185.746 414.719>
LayerCount: 2
Back
SplineSet
1098 837.057 m 5
 1292.91 751.327 1580 660.405 1580 381 c 4
 1580 68 1220 -23 1033 -23 c 4
 803 -23 635 42 581 126 c 5xe8
 615 488 l 5
 792 459 l 5
 834 272 l 5
 876 212 974 181 1059 181 c 4
 1138 181 1186 228 1186 281 c 4
 1186 450.871 737.562 439.715 618 710.403 c 5
 599.61 752.039 589 800.343 589 857 c 4
EndSplineSet
Fore
SplineSet
1148 797.057 m 1
 1342.91 711.327 1580 660.405 1580 381 c 0
 1580 68 1220 -23 1033 -23 c 0
 803 -23 635 42 581 126 c 1xe8
 615 488 l 1
 792 459 l 1
 834 272 l 1
 876 212 974 181 1059 181 c 0
 1138 181 1186 228 1186 281 c 0
 1186 450.871 843 591 628 640.403 c 1
 602 707.403 l 1
 1038 1017 l 1
 1038 1025 l 1
 939 1062 855 1084.9 756.75 1084.9 c 0
 616.525 1084.9 530 1004.45 530 752 c 2
 530 1 l 1
 3 1 l 1
 16 137 l 1
 170 213 l 1
 170 729 l 2
 170 1106 577 1269 937 1269 c 0
 1199 1269 1410 1227 1515 1187 c 1
 1515 1030 l 1
 1148 797.057 l 1
EndSplineSet
EndChar

StartChar: uni1E9E.alt2
Encoding: 65554 -1 358
Width: 919
VWidth: 0
Flags: HW
HStem: -25 181<887.527 1073.91> 0 21G<0 546> 1108 1<881 918> 1111 174<633.675 913.906>
VStem: 177 369<220 996.882> 1075 336<163.279 545.999>
LayerCount: 2
Back
SplineSet
1302 997 m 21
 1077 1155 828 1017 1020 870.687 c 4
 1159.92 764.063 1596 707.46 1596 351 c 0
 1596 38 1236 -23 1049 -23 c 0
 819 -23 651 42 597 126 c 1xe8
 631 488 l 1
 808 459 l 1
 850 272 l 1
 892 212 991 181 1076 181 c 0
 1155 181 1202 198 1202 251 c 0
 1202 447 605 408 605 797 c 0
 605 946 717 1035 798 1050 c 1
 788 1060 l 1
 772 1062 758 1063 744 1063 c 0
 580 1063 531 927 531 751 c 2
 531 0 l 1
 4 0 l 1x78
 17 136 l 1
 171 212 l 1
 171 728 l 2
 171 1105 578 1268 938 1268 c 0
 1228 1268 1467 1185 1542 1116 c 1
 1542 1092 1514 754 1514 754 c 1
 1341 784 l 1
 1302 997 l 21
EndSplineSet
Fore
SplineSet
1262 1007 m 17
 1191.09 1056.79 1157.79 1067.19 1096.67 1067.19 c 0
 1012.51 1067.19 951.421 1028.52 951.421 974.69 c 0
 951.421 750 1596 789.232 1596 351 c 0
 1596 38 1236 -23 1049 -23 c 0
 819 -23 651 42 597 126 c 1xe8
 631 488 l 1
 808 459 l 1
 850 272 l 1
 892 212 991 181 1076 181 c 0
 1155 181 1202 198 1202 251 c 0
 1202 447 605 408 605 797 c 0
 605 946 717 1035 798 1050 c 1
 788 1060 l 1
 772 1062 758 1063 744 1063 c 0
 580 1063 531 927 531 751 c 2
 531 0 l 1
 4 0 l 1x78
 17 136 l 1
 171 212 l 1
 171 728 l 2
 171 1105 578 1268 938 1268 c 0
 1228 1268 1427 1195 1502 1126 c 1
 1502 1102 1474 764 1474 764 c 1
 1301 794 l 1
 1262 1007 l 17
EndSplineSet
EndChar

StartChar: uniF001
Encoding: 61441 61441 359
Width: 1247
VWidth: 0
Flags: HW
HStem: 0 21G<0 1234.61> 806 165<463 656> 806 147<27 109.432> 908 20G<752.185 1048.07> 1028 312<830.572 1046.63>
VStem: 167 296<240 806> 678 149<1125 1263> 771 315<230 619>
LayerCount: 2
Back
SplineSet
610 0 m 5xe8
 618 176 l 5
 772 230 l 5
 772 619 l 5
 624 728 l 5
 657 901 l 5
 1030 928 l 5
 1086 872 l 5
 1086 230 l 5
 1248 174 l 5
 1237 0 l 5
 610 0 l 5xe8
680 1188 m 4xf0
 680 1272 759 1340 912 1340 c 4
 1071 1340 1148 1269 1148 1187 c 4
 1148 1104 1080 1028 910 1028 c 4
 735 1028 680 1104 680 1188 c 4xf0
0 0 m 5xd8
 12 158 l 5
 167 230 l 5
 167 700 l 5
 17 700 l 5
 27 849 l 5xb8
 165 873 l 5
 181 1131 364 1286 612 1286 c 4
 719 1286 895 1279 895 1135 c 4
 895 1045 791 972 708 965 c 5
 669 1043 636 1134 567 1134 c 4
 508 1134 463 1108 463 955 c 6
 463 866 l 5
 726 866 l 5
 712 700 l 5
 463 700 l 5
 463 240 l 5
 463 172 l 5
 463 0 l 5
 0 0 l 5xd8
EndSplineSet
Fore
SplineSet
610 0 m 1xe8
 618 176 l 1
 772 230 l 1
 772 619 l 1
 600 700 l 1
 614 866 l 1
 1030 928 l 1
 1086 872 l 1
 1086 230 l 1
 1248 174 l 1
 1237 0 l 1
 610 0 l 1xe8
810 1152 m 0xf0
 810 1175.52 833.897 1194.56 880.18 1194.56 c 0
 928.277 1194.56 951.569 1174.68 951.569 1151.72 c 0
 951.569 1128.48 931 1107.2 879.575 1107.2 c 0
 826.638 1107.2 810 1128.48 810 1152 c 0xf0
0 0 m 1xd8
 12 158 l 1
 167 230 l 1
 167 700 l 1
 17 700 l 1
 27 849 l 1xb8
 165 873 l 1
 181 1131 424 1286 672 1286 c 0
 779 1286 1041 1293 1041 1149 c 0
 1041 1059 937 986 854 979 c 1
 815 1057 696 1134 627 1134 c 0
 568 1134 463 1108 463 955 c 2
 463 866 l 1
 614 866 l 1
 600 700 l 1
 463 700 l 1
 463 240 l 1
 463 172 l 1
 463 0 l 1
 0 0 l 1xd8
EndSplineSet
EndChar

StartChar: uniF002
Encoding: 61442 61442 360
Width: 1225
VWidth: 0
Flags: HW
HStem: 0 21G<0 1214.38> 806 165<463 707> 806 147<27 109.432> 1076 223<461.05 599.025> 1246 20G<702 1031.4>
VStem: 167 296<240 806> 754 317<230 966>
LayerCount: 2
Back
SplineSet
588 0 m 5
 603 176 l 5
 755 230 l 5
 755 966 l 5
 588 1068 l 5
 622 1241 l 5
 1013 1266 l 5
 1070 1209 l 5
 1070 230 l 5
 1226 174 l 5
 1213 0 l 5
 588 0 l 5
0 0 m 5xd8
 12 158 l 5
 167 230 l 5
 167 700 l 5
 17 700 l 5
 27 849 l 5xb8
 165 873 l 5
 181 1131 364 1286 612 1286 c 4
 719 1286 895 1279 895 1135 c 4
 895 1045 791 972 708 965 c 5
 669 1043 636 1134 567 1134 c 4
 508 1134 463 1108 463 955 c 6
 463 866 l 5
 726 866 l 5
 712 700 l 5
 463 700 l 5
 463 240 l 5
 708 172 l 5
 700 0 l 5
 0 0 l 5xd8
EndSplineSet
Fore
SplineSet
588 0 m 1
 603 176 l 1
 755 230 l 1
 755 1026 l 1
 755 1146 l 1
 755 1250 l 1
 1013 1266 l 1
 1070 1209 l 1
 1070 230 l 1
 1226 174 l 1
 1213 0 l 1
 588 0 l 1
0 0 m 1xd8
 12 158 l 1
 167 230 l 1
 167 700 l 1
 17 700 l 1
 27 849 l 1xb8
 165 873 l 1
 181 1131 364 1286 612 1286 c 0
 719 1286 936 1281 936 1137 c 0
 936 1047 838 1033 755 1026 c 1
 717 1071 636 1134 567 1134 c 0
 508 1134 463 1108 463 955 c 2
 463 866 l 1
 716 866 l 1
 702 700 l 1
 463 700 l 1
 463 240 l 1
 463 172 l 1
 463 0 l 1
 0 0 l 1xd8
EndSplineSet
EndChar

StartChar: v
Encoding: 118 118 363
Width: 1032
VWidth: 0
Flags: HW
HStem: 902 20G<19.1795 573 646.41 1032>
DStem2: 574 332 661 -6 0.341743 0.939793<0 396.593>
LayerCount: 2
Fore
SplineSet
0 766 m 1
 22 922 l 1
 573 922 l 1
 553 766 l 1
 460 709 l 1
 574 332 l 1
 706 706 l 1
 622 766 l 1
 650 922 l 1
 1032 922 l 1
 1007 766 l 1
 921 709 l 1
 661 -6 l 1
 382 -32 l 1
 112 706 l 1
 0 766 l 1
EndSplineSet
EndChar

StartChar: w
Encoding: 119 119 364
Width: 1310
VWidth: 0
Flags: HW
HStem: 905 20G<20.1069 508 907.359 1310>
LayerCount: 2
Fore
SplineSet
0 766 m 1
 23 925 l 1
 508 925 l 1
 487 768 l 1
 411 693 l 1
 477 341 l 1
 487 457 l 1
 566 860 l 1
 797 880 l 1
 912 340 l 1
 925 476 l 1
 949 691 l 1
 889 766 l 1
 910 925 l 1
 1310 925 l 1
 1286 768 l 1
 1180 693 l 1
 1002 -11 l 1
 752 -39 l 1
 648 414 l 1
 553 -11 l 1
 305 -39 l 1
 114 691 l 1
 0 766 l 1
EndSplineSet
EndChar

StartChar: x
Encoding: 120 120 369
Width: 990
VWidth: 0
Flags: HW
HStem: 0 21G<0 461.731 642.109 969.57> 911 20G<38.1491 348.763 574.725 990>
LayerCount: 2
Fore
SplineSet
93 731 m 1
 11 770 l 1
 42 931 l 1
 335 931 l 1
 539 635 l 1
 613 742 l 1
 551 800 l 1
 579 931 l 1
 990 931 l 1
 967 775 l 1
 841 732 l 1
 650 504 l 1
 874 223 l 1
 990 179 l 1
 967 0 l 1
 656 0 l 1
 439 312 l 1
 382 199 l 1
 483 134 l 1
 458 0 l 1
 0 0 l 1
 13 157 l 1
 150 209 l 1
 326 446 l 1
 93 731 l 1
EndSplineSet
EndChar

StartChar: y
Encoding: 121 121 370
Width: 1120
VWidth: 0
Flags: HW
HStem: -382 276<138.293 413.512> 902 20G<44.1069 602 695.538 1120>
DStem2: 634 321 670 -51 0.405577 0.914061<0 409.802>
LayerCount: 2
Fore
SplineSet
24 763 m 1
 47 922 l 1
 602 922 l 1
 581 766 l 1
 491 709 l 1
 634 321 l 1
 788 701 l 1
 672 766 l 1
 699 922 l 1
 1120 922 l 1
 1103 766 l 1
 1005 704 l 1
 670 -51 l 2
 598 -214 445 -382 230 -382 c 0
 120 -382 0 -312 0 -219 c 0
 0 -154 9 -94 84 -21 c 1
 134 -75 228 -106 310 -106 c 0
 369 -106 421 -87 449 -41 c 2
 463 -18 l 1
 150 704 l 1
 24 763 l 1
EndSplineSet
EndChar

StartChar: yen
Encoding: 165 165 374
Width: 1126
VWidth: 0
Flags: HW
HStem: 0 338<279 378 725 841> 141 197<146 146 852 955> 380 200<152 317 788 964> 1225 20G<27.897 577 716.795 1126>
DStem2: 621 626 788 580 0.412888 0.910782<27.0563 440.624>
LayerCount: 2
Fore
SplineSet
0 1089 m 1xb0
 32 1245 l 1
 574 1245 l 1
 546 1089 l 1
 482 1028 l 1
 626 686 l 1
 794 1030 l 1
 692 1089 l 1
 717 1245 l 1
 1126 1245 l 1
 1103 1089 l 1
 989 1030 l 1
 773 630 l 1
 973 630 l 1
 964 490 l 1
 725 490 l 1
 725 438 l 1xb0
 968 438 l 1
 955 307 l 1
 725 307 l 1
 725 203 l 1
 852 141 l 1x70
 841 0 l 1
 261 0 l 1xb0
 279 131 l 1
 378 212 l 1
 378 307 l 1
 132 307 l 1
 146 438 l 1x70
 378 438 l 1
 378 490 l 1
 135 490 l 1
 152 630 l 1
 342 630 l 1
 126 1027 l 1
 0 1089 l 1xb0
EndSplineSet
EndChar

StartChar: z
Encoding: 122 122 376
Width: 817
VWidth: 0
Flags: HW
HStem: 0 181<370 553> 747 175<260 407>
LayerCount: 2
Fore
SplineSet
16 180 m 1
 407 747 l 1
 260 747 l 1
 161 574 l 1
 0 603 l 1
 25 922 l 1
 798 922 l 1
 792 763 l 1
 370 181 l 1
 553 181 l 1
 675 366 l 1
 817 330 l 1
 778 0 l 1
 24 0 l 1
 16 180 l 1
EndSplineSet
EndChar

StartChar: zero
Encoding: 48 48 380
Width: 946
VWidth: 0
Flags: HW
HStem: -27 168<427.191 521.77> 1026 181<423.379 516.384>
VStem: 0 392<280.969 867.189> 555 391<294.253 904.182>
LayerCount: 2
Fore
SplineSet
0 583 m 0
 0 1062 269 1207 489 1207 c 0
 729 1207 946 1068 946 583 c 0
 946 126 684 -27 470 -27 c 0
 248 -27 0 93 0 583 c 0
392 591 m 0
 392 270 409 141 480 141 c 0
 537 141 555 276 555 593 c 0
 555 928 533 1026 464 1026 c 0
 414 1026 392 927 392 591 c 0
EndSplineSet
EndChar

StartChar: zero.osf
Encoding: 65555 -1 381
Width: 767
VWidth: 0
Flags: HW
VStem: 0 359<233.03 736.327> 417 350<272.799 792.207>
LayerCount: 2
Fore
SplineSet
0 508 m 0
 0 823 220 1030 395 1023 c 0
 620 1015 767 847 767 540 c 0
 767 145 552 -20 384 -20 c 0
 231 -20 0 76 0 508 c 0
359 544 m 0
 359 -42 443 153 384 153 c 0
 339 153 417 -21 417 523 c 0
 417 1149 293 874 390 874 c 0
 522 874 359 1172 359 544 c 0
EndSplineSet
EndChar

StartChar: yen.osf
Encoding: 65556 -1 382
Width: 1142
VWidth: 0
Flags: HW
HStem: 0 21G<275 856.56> 250 341<172 310 822 982> 390 201<310 450 710 822> 390 58<172 310 822 982>
DStem2: 646 515 710 591 0.39025 0.920709<0 94.9499>
LayerCount: 2
Back
SplineSet
-19.041 1307.23 m 1
 -2.08008 2650.72 l 1
 826.065 2685.48 l 1
 825.969 2665.22 l 1
 1207.9 2580.42 l 1
 1789.45 1175.88 l 1
 2062.88 2449.67 l 1
 1655.83 1447.47 l 1
 1935.17 1546.81 l 1
 2950.45 1482.08 l 1
 2546.4 1307.23 l 1
 -19.041 1307.23 l 1
EndSplineSet
Fore
SplineSet
0 969 m 1x90
 27 1129 l 1
 615 1129 l 1
 588 969 l 1
 483 912 l 1
 626 535 l 1
 813 909 l 1
 654 969 l 1
 678 1131 l 1
 1142 1131 l 1
 1121 969 l 1
 1006 913 l 1
 742 468 l 1
 1032 468 l 1x90
 1022 330 l 1
 739 330 l 1
 739 203 l 1
 866 141 l 1
 855 0 l 1
 275 0 l 1
 293 131 l 1
 412 212 l 1
 412 330 l 1
 75 330 l 1xc0
 92 468 l 1
 370 468 l 1
 126 909 l 1
 0 969 l 1x90
75 570 m 1
 92 711 l 1xc0
 450 711 l 9xa0
 527 570 l 17
 75 570 l 1
703 570 m 9x90
 780 711 l 17
 1032 711 l 1xa0
 1022 570 l 1
 703 570 l 9x90
EndSplineSet
EndChar
